<svg width="278" height="291" viewBox="0 0 278 291" fill="none" xmlns="http://www.w3.org/2000/svg">
<path d="M26.4258 241.973C26.4258 241.973 50.0021 228.141 79.8791 250.002L64.9332 261.995H39.7045L26.4258 242.925" fill="#0C1E4F"/>
<path d="M77.1255 264.908C49.4327 281.128 30.3519 261.482 30.3519 261.482C27.7095 256.68 24.8167 246.74 24.5352 239.066L26.3588 241.301C26.3588 241.301 42.7952 254.491 81.4075 251.337C77.9075 260.292 77.1255 264.908 77.1255 264.908Z" fill="#000F1F"/>
<path d="M81.4082 251.337C74.5995 253.223 38.9297 261.807 24.5469 239.068C24.8192 233.053 25.397 228.159 25.7687 226.305C26.7827 221.26 26.595 205.406 26.595 205.406L52.2617 193.681C52.2617 193.681 86.3693 219.634 87.5525 221.438C88.6529 223.099 86.4245 239.724 81.4082 251.337Z" fill="#000F1F"/>
<path d="M24.1057 2.14823C23.1881 1.41818 22.0197 1.07953 20.8541 1.2058C19.5365 1.34017 19.0747 2.59552 16.0126 0.469519C15.6471 0.230406 15.232 0.0776371 14.7987 0.0227842C14.3654 -0.0320687 13.9254 0.0124334 13.5118 0.152919C11.933 0.642544 9.71739 1.86845 9.51497 4.89823C9.51497 4.89823 9.2555 7.48625 3.53257 7.42919C-2.19037 7.37212 0.483402 14.7956 1.65559 15.4288C2.82778 16.062 1.34644 18.2764 0.799911 18.4218C0.25338 18.5672 -0.379639 23.4856 5.19976 23.2831C5.19976 23.2831 6.0352 23.5426 4.99918 24.2918C3.96317 25.041 1.19739 29.2874 8.49551 29.9262C14.8735 30.4784 23.3126 8.65877 24.6283 2.99311C24.6853 2.72989 24.448 2.43354 24.1057 2.14823Z" fill="#1941AA"/>
<path d="M47.7866 48.185C47.7866 48.185 48.8079 61.5963 53.5979 67.3374C53.5979 67.3374 32.5408 68.5449 27.1914 67.9853C27.1914 67.9853 30.1688 61.5963 28.4795 54.6053C26.7902 47.6144 45.0834 39.9258 45.0834 39.9258L47.7866 48.185Z" fill="#F3D4CD"/>
<path d="M28.096 4.02166C28.096 4.02166 15.9287 -2.32321 9.06859 14.5964C2.20843 31.5161 17.1359 40.4913 17.1359 40.4913L44.4091 41.3914C44.4091 41.3914 44.2251 46.6208 46.3045 49.2107C46.3045 49.2107 51.7422 48.0014 52.0863 30.3915C52.4304 12.7815 41.9543 -3.05765 28.096 4.02166Z" fill="#000F1F"/>
<path d="M40.1778 39.9491C40.1778 52.0977 32.1455 59.9188 23.78 59.9188C15.3815 59.9188 9.0384 43.9783 9.05864 30.5265C9.07152 24.1669 10.3468 20.8279 13.4751 19.4051C15.0042 18.713 18.473 20.2684 19.3931 21.4188C19.3931 21.4188 22.8894 17.3435 26.3986 17.3693C37.5372 17.419 40.1778 27.7876 40.1778 39.9491Z" fill="#F3D4CD"/>
<path d="M45.9336 36.6119C46.3014 32.5242 44.7549 29.0444 42.4794 28.8395C40.2039 28.6347 38.0611 31.7823 37.6933 35.87C37.3255 39.9577 38.872 43.4376 41.1475 43.6424C43.423 43.8473 45.5658 40.6996 45.9336 36.6119Z" fill="#F3D4CD"/>
<path d="M48.5524 10.2795C48.5524 10.2795 49.2351 12.0778 45.7038 13.9038C40.612 16.5378 44.539 18.7817 43.9354 22.3213C43.3318 25.861 41.0721 26.0469 42.5093 29.9363C43.9023 33.706 46.8245 30.8235 48.0298 33.4133C49.2351 36.0032 47.3397 39.1103 53.1215 39.0238C58.9033 38.9373 53.5963 39.0238 53.5963 39.0238C53.5963 39.0238 55.7382 38.5047 56.9472 37.3819C58.1562 36.259 60.1749 37.1886 62.3021 35.6866C64.4294 34.1846 67.3644 29.3583 65.1489 24.6424C65.1489 24.6424 68.371 22.498 67.105 19.2473C65.8389 15.9967 64.1718 18.4982 62.3205 16.1973C60.4693 13.8964 62.8947 11.2127 58.6402 10.9035C55.8799 10.701 56.5534 9.9684 54.7427 7.46506C53.9956 6.43059 48.1199 6.7343 48.5524 10.2795Z" fill="#1941AA"/>
<path d="M144.292 200.532C144.292 200.532 122.848 236.938 105.28 236.218C105.159 236.218 105.035 236.207 104.912 236.198C87.7321 235.049 88.7074 203.542 88.7074 203.542C78.4393 209.8 68.8648 212.561 60.4571 213.338C40.103 215.203 26.574 205.405 26.574 205.405C26.7801 202.11 23.891 191.879 21.1878 187.012C18.4846 182.146 14.2743 165.023 15.6231 156.011C15.8518 154.495 15.9613 152.963 15.9507 151.43C15.9249 147.167 14.9809 143.627 14.162 140.796C13.7075 139.221 13.2898 137.864 13.0911 136.726C12.4157 132.852 -0.0790462 122.045 3.12653 115.279C6.33211 108.512 10.4449 97.1957 10.4449 97.1957C9.91609 96.3006 9.43334 95.3791 8.99852 94.4347C8.94332 94.3169 8.89179 94.1991 8.84027 94.0813C8.78874 93.9635 8.75746 93.8972 8.71882 93.8033C8.59614 93.5272 8.48389 93.2536 8.38207 92.9824C8.38102 92.9775 8.38102 92.9725 8.38207 92.9677C8.33238 92.8443 8.28822 92.7228 8.24405 92.5995C8.19989 92.4762 8.15572 92.3584 8.11156 92.2314C7.98888 91.8706 7.87418 91.5147 7.76745 91.1638C7.73248 91.046 7.69936 90.93 7.66808 90.814C7.6368 90.6981 7.60551 90.5821 7.57607 90.468C7.54663 90.3539 7.51534 90.2379 7.48958 90.1238L7.41229 89.833C7.38408 89.7102 7.35832 89.5875 7.33501 89.4648C7.31476 89.3691 7.29636 89.2715 7.27796 89.1758C7.27796 89.1445 7.26508 89.1132 7.25956 89.082C7.243 88.9881 7.22644 88.8979 7.21172 88.7985C7.19699 88.6991 7.17491 88.5794 7.16019 88.4708C7.14547 88.3622 7.12891 88.2573 7.11603 88.1506C7.08842 87.9334 7.06266 87.718 7.04426 87.5045C7.02586 87.291 7.01114 87.1069 7.0001 86.9118C7.0001 86.8989 7.0001 86.886 7.0001 86.8731C7.0001 86.77 6.98905 86.667 6.98537 86.5639C6.98169 86.4608 6.98537 86.3577 6.98537 86.2565C6.98537 86.1553 6.98537 86.054 6.98537 85.9528C6.98537 78.2918 12.3219 73.4361 14.7362 70.8241C15.8642 69.6019 20.1849 68.8454 25.4828 68.3797C36.3159 67.4299 51.2231 67.7004 51.2231 67.7004C52.0179 67.4871 52.8256 67.3248 53.6411 67.2145C53.8766 67.1814 54.1122 67.1538 54.3514 67.1298C55.1957 67.0437 56.044 67.0013 56.8927 67.0028H57.3527H57.5827L57.9324 67.0139L58.2802 67.0286L58.7237 67.0525C58.9015 67.0636 59.08 67.0765 59.2591 67.0912H59.3328L59.7854 67.1298L59.9842 67.1501L60.5509 67.2127L60.93 67.2587L61.4821 67.3323L61.7986 67.3783C62.3506 67.463 62.9156 67.5624 63.4731 67.6673C63.6682 67.7041 63.8633 67.7446 64.0583 67.7851C64.2534 67.8256 64.4263 67.8624 64.6214 67.9048H64.6545C64.8533 67.9471 65.0502 67.9931 65.2489 68.0391L65.3207 68.0557C65.4863 68.0944 65.6501 68.133 65.8138 68.1753L66.0163 68.225C66.2371 68.2803 66.4579 68.3355 66.6769 68.3944C66.8959 68.4533 67.1553 68.5232 67.3945 68.5895L67.7368 68.6852L68.0754 68.7828L68.4011 68.8785C68.9875 69.0527 69.5666 69.2368 70.1382 69.4307C70.3333 69.4933 70.5265 69.5546 70.7179 69.6148L70.7621 69.6295C70.9718 69.7013 71.1798 69.7731 71.3859 69.8467L71.7061 69.959L72.3409 70.1891C72.8654 70.3731 73.3769 70.5756 73.8793 70.7744L74.1793 70.8922C74.6761 71.0886 75.1601 71.2867 75.6312 71.4868H75.6514C76.4378 71.8181 77.1818 72.1445 77.8835 72.466L77.9222 72.4844C81.6227 74.1742 84.0297 75.5989 84.0297 75.5989C88.2087 76.4622 94.5352 76.2357 96.9201 76.1069C97.1556 76.0959 97.3894 76.083 97.6249 76.0664L97.7887 76.0554H97.8752C108.09 68.2158 110.539 69.8375 121.093 68.306C121.249 68.2839 121.405 68.26 121.558 68.2342C121.865 68.1864 122.165 68.1349 122.46 68.0796L122.896 67.995C123.203 67.9342 123.503 67.8698 123.794 67.8017L124.134 67.7207L124.596 67.6047L124.916 67.5182H124.935L125.294 67.4151C126.86 66.9752 128.374 66.3635 129.806 65.591C129.949 65.5119 130.089 65.4346 130.224 65.3536C130.387 65.2597 130.546 65.1695 130.696 65.0664C130.759 65.0296 130.82 64.9909 130.88 64.9505C130.947 64.91 131.011 64.8658 131.076 64.8234C131.345 64.647 131.657 64.5485 131.979 64.5389C132.301 64.5293 132.619 64.6089 132.898 64.769C133.177 64.9291 133.406 65.1634 133.561 65.4459C133.715 65.7285 133.788 66.0482 133.771 66.3696L133.749 66.8353C133.731 67.2145 133.716 67.5974 133.701 67.9766C133.701 68.0391 133.701 68.1017 133.701 68.1606C133.701 68.1809 133.701 68.203 133.701 68.2232C133.701 68.3484 133.701 68.4735 133.689 68.5913C133.689 68.7975 133.676 69.0018 133.67 69.2025C133.67 69.3252 133.667 69.4448 133.659 69.5614C133.659 69.6792 133.659 69.7952 133.65 69.9093V70.1283V70.1504V70.3584V70.5756C133.65 70.6106 133.65 70.6456 133.65 70.6805C133.65 70.7965 133.65 70.9125 133.65 71.0247C133.65 71.2199 133.65 71.4076 133.639 71.577C133.639 71.6285 133.639 71.6782 133.639 71.7279C133.624 72.5507 133.62 73.0716 133.62 73.0716C129.734 78.9287 111.078 87.1308 111.078 87.1308C84.6848 98.6959 87.7248 92.7486 74.8932 93.4702C63.0039 94.1383 63.7234 114.303 63.8945 117.261C63.9074 117.495 63.9166 117.629 63.9166 117.629L64.3141 118.014C64.7797 118.831 65.1348 120.232 65.5231 122.126C67.7313 132.885 71.0436 159.575 102.172 185.785C109.417 191.885 136.797 195.881 140.278 193.457L144.292 200.532Z" fill="#D5D9E3"/>
<path d="M170.459 173.087L149.726 202.354C149.726 202.354 122.849 236.939 105.288 236.223C105.167 236.223 105.043 236.212 104.92 236.203C91.1573 235.384 69.3605 220.034 60.4651 213.343C57.9643 211.458 56.4921 210.262 56.4921 210.262C31.5983 196.637 20.5499 173.216 15.9513 151.429C15.1895 147.824 14.6043 144.262 14.1627 140.796C11.281 118.179 14.4939 99.6875 14.4939 99.6875L8.99916 94.4341C8.94395 94.3163 8.89243 94.1985 8.8409 94.0807C8.78938 93.9629 8.7581 93.8967 8.71945 93.8028C8.59677 93.5267 8.48452 93.253 8.3827 92.9818C8.38166 92.977 8.38166 92.972 8.3827 92.9671C8.33302 92.8438 8.28885 92.7223 8.24469 92.599C8.20052 92.4756 8.15636 92.3578 8.1122 92.2308C7.98952 91.8701 7.87481 91.5142 7.76808 91.1632C7.73312 91.0454 7.7 90.9295 7.66871 90.8135C7.63743 90.6975 7.60615 90.5816 7.57671 90.4674C7.54726 90.3533 7.51598 90.2374 7.49022 90.1232L7.41293 89.8324C7.38471 89.7097 7.35895 89.587 7.33564 89.4643C7.3154 89.3686 7.297 89.271 7.2786 89.1753C7.2786 89.144 7.26572 89.1127 7.2602 89.0814C7.24363 88.9875 7.22707 88.8973 7.21235 88.7979C7.19763 88.6985 7.17555 88.5789 7.16083 88.4703C7.14611 88.3617 7.12954 88.2568 7.11666 88.15C7.08906 87.9328 7.0633 87.7174 7.0449 87.5039C7.02649 87.2904 7.01177 87.1063 7.00073 86.9112C7.00073 86.8983 7.00073 86.8855 7.00073 86.8726C7.00073 86.7695 6.98969 86.6664 6.98601 86.5633C6.98233 86.4603 6.98601 86.3572 6.98601 86.2559C6.98601 86.1547 6.98601 86.0535 6.98601 85.9522C6.98601 78.2912 12.3225 73.4355 14.7368 70.8235C15.8648 69.6013 20.1856 68.8448 25.4834 68.3791C36.3165 67.4293 51.2237 67.6999 51.2237 67.6999C52.0186 67.4866 52.8262 67.3242 53.6417 67.2139C53.8773 67.1826 54.1128 67.1532 54.352 67.1293C55.1964 67.0432 56.0446 67.0008 56.8933 67.0023H57.3533H57.5834L57.933 67.0133L58.2808 67.028L58.7243 67.052C58.9022 67.063 59.0807 67.0759 59.2598 67.0906H59.3334L59.786 67.1293L59.9848 67.1495L60.5516 67.2121L60.9306 67.2581L61.4827 67.3317L61.7992 67.3778C62.3512 67.4624 62.9162 67.5618 63.4738 67.6667C63.6688 67.7036 63.8639 67.7441 64.0589 67.7846C64.254 67.825 64.427 67.8619 64.622 67.9042H64.6551C64.8539 67.9465 65.0508 67.9926 65.2495 68.0386L65.3213 68.0551C65.4869 68.0938 65.6507 68.1324 65.8145 68.1748L66.0169 68.2245L66.6775 68.3938C66.9167 68.4564 67.1559 68.5227 67.3952 68.5889L67.7374 68.6847L68.076 68.7822L68.4017 68.8779C68.9881 69.0522 69.5672 69.2363 70.1389 69.4301L70.7185 69.6142L70.7627 69.6289C70.9725 69.7007 71.1804 69.7725 71.3865 69.8461L71.7067 69.9584L72.3415 70.1885C72.8642 70.3824 73.3769 70.5775 73.8799 70.7738L74.1799 70.8917C74.6767 71.0904 75.1607 71.2886 75.6318 71.4862H75.652C76.3973 71.8028 77.1094 72.1157 77.7792 72.4194L77.8841 72.4654L77.9228 72.4839C83.8747 75.1752 90.377 76.4257 96.9023 76.1339C97.1378 76.1229 97.3716 76.11 97.6071 76.0935H97.7046H97.7709H97.8574C108.072 68.2539 110.521 69.8756 121.075 68.3441C121.231 68.322 121.388 68.2981 121.54 68.2723C121.848 68.2245 122.148 68.1729 122.442 68.1177L122.878 68.033C123.185 67.9723 123.485 67.9079 123.776 67.8398L124.117 67.7588L124.578 67.6428L124.899 67.5563H124.917L125.276 67.4532C126.843 67.0133 128.356 66.4016 129.788 65.6291C129.932 65.55 130.071 65.4708 130.206 65.3917C130.37 65.2978 130.528 65.2076 130.679 65.1045L130.863 64.9885L131.058 64.8615C131.327 64.6851 131.64 64.5866 131.961 64.5769C132.283 64.5673 132.601 64.647 132.88 64.8071C133.159 64.9672 133.389 65.2015 133.543 65.484C133.697 65.7665 133.77 66.0863 133.754 66.4077L133.732 66.8734C133.713 67.2526 133.697 67.6355 133.684 68.0146C133.684 68.0772 133.684 68.1398 133.684 68.1987C133.684 68.219 133.684 68.241 133.684 68.2613C133.684 68.3883 133.674 68.5135 133.671 68.6294C133.671 68.8356 133.658 69.0399 133.652 69.2405C133.652 69.3633 133.649 69.4829 133.641 69.5995C133.641 69.7173 133.641 69.8332 133.632 69.9474V70.1664V70.1885V70.3965V70.6137C133.632 70.6487 133.632 70.6837 133.632 70.7186C133.632 70.8346 133.632 70.9506 133.632 71.0628C133.632 71.2579 133.632 71.4457 133.621 71.615C133.621 71.6666 133.621 71.7163 133.621 71.766C133.606 72.5888 133.603 73.1097 133.603 73.1097C129.716 78.9668 111.061 87.1689 111.061 87.1689C84.6854 98.6954 87.7254 92.7481 74.8939 93.4696C63.0045 94.1378 63.724 114.303 63.8952 117.261L64.3092 117.997C64.6429 119.387 65.0464 120.759 65.5182 122.109C71.6496 139.813 93.3232 170.262 142.621 183.095C151.581 185.438 166.978 175.511 170.459 173.087Z" fill="#EF6969"/>
<path d="M123.967 166.515C95.6979 156.919 75.8535 138.406 69.5822 130.187C63.3109 121.968 44.8172 111.905 32.7548 109.391C20.6925 106.876 11.8594 99.4406 11.8594 99.4406C0.65278 86.9496 9.06996 69.1312 23.3883 67.2905C41.0632 64.8829 45.13 79.7888 45.13 79.7888L47.2903 88.256C47.2903 88.256 58.1234 101.025 70.9108 107.767L71.4076 108.036C85.772 117.159 100.114 121.889 100.114 121.889C123.267 127.126 129.64 130.27 132.338 132.435C133.074 133.14 135.403 135.35 135.431 135.38C135.458 135.409 121.819 163.478 123.967 166.515Z" fill="#EF6969"/>
<path d="M137.14 59.4981C137.14 59.4981 138.373 53.0557 150.735 52.4777C150.989 52.4646 151.241 52.5118 151.473 52.6155C151.704 52.7191 151.908 52.8762 152.067 53.0738C152.226 53.2715 152.336 53.504 152.387 53.7524C152.439 54.0008 152.431 54.2578 152.364 54.5025C151.372 58.0274 148.5 65.1969 140.955 69.1213C140.447 69.3868 139.878 69.5141 139.305 69.4905C138.732 69.4669 138.176 69.2932 137.691 68.9867C137.207 68.6803 136.811 68.2518 136.544 67.7444C136.277 67.2369 136.148 66.6682 136.17 66.0952C136.234 63.8657 136.559 61.6515 137.14 59.4981Z" fill="#F3D4CD"/>
<path d="M19.8088 17.1779C19.7745 17.1784 19.7403 17.1734 19.7076 17.1632C19.614 17.1362 19.5349 17.0732 19.4876 16.988C19.4403 16.9027 19.4288 16.8023 19.4555 16.7085C20.7307 12.3019 25.2723 7.33203 25.4637 7.12219C25.5298 7.05018 25.6218 7.0074 25.7195 7.00326C25.8171 6.99912 25.9124 7.03395 25.9844 7.1001C26.0564 7.16625 26.0992 7.2583 26.1033 7.35599C26.1075 7.45368 26.0726 7.54901 26.0065 7.62102C25.9605 7.67256 21.3895 12.6737 20.1621 16.9128C20.1398 16.9893 20.0933 17.0565 20.0296 17.1043C19.9659 17.1521 19.8884 17.1779 19.8088 17.1779Z" fill="#EF6969"/>
<path d="M45.0338 86.4017C44.9579 86.4013 44.884 86.3775 44.8222 86.3335C44.7246 86.2636 42.4115 84.5536 39.2133 76.7435C39.1926 76.6984 39.1812 76.6495 39.1798 76.5998C39.1785 76.5502 39.1872 76.5007 39.2054 76.4545C39.2237 76.4083 39.2511 76.3663 39.286 76.331C39.321 76.2956 39.3627 76.2677 39.4087 76.249C39.4546 76.2302 39.504 76.2209 39.5536 76.2217C39.6033 76.2225 39.6523 76.2334 39.6976 76.2536C39.743 76.2738 39.7838 76.3031 39.8176 76.3395C39.8514 76.3759 39.8774 76.4188 39.8942 76.4656C42.9857 84.0124 45.2307 85.7188 45.2509 85.7353C45.314 85.781 45.361 85.8455 45.3851 85.9196C45.4092 85.9937 45.4091 86.0735 45.385 86.1476C45.3609 86.2217 45.3139 86.2862 45.2507 86.3318C45.1876 86.3775 45.1117 86.4019 45.0338 86.4017Z" fill="#F3D4CD"/>
<path d="M257.662 207.249C257.662 207.249 221.423 222.433 208.496 251.794C174.052 267.311 149.257 291.001 149.257 291.001C132.219 258.139 81.4062 254.949 81.4062 254.949C97.5464 197.841 149.704 168.486 149.704 168.486C216.318 140.741 259.848 172.635 259.848 172.635C256.396 185.265 256.311 197.145 257.662 207.249Z" fill="#FDB127"/>
<path d="M110.714 224.686C113.73 220.542 117.544 216.229 122.351 214.33C125.454 213.102 129.16 213.535 131.833 215.618C133.513 216.925 134.778 218.771 135.181 220.885C135.615 223.127 135.383 225.457 134.87 227.669C138.89 228.096 142.298 229.011 145.892 230.905C144.298 233.083 142.931 235.419 141.813 237.876C138.719 236.446 135.276 236.322 131.935 236.287C131.263 238.016 130.635 239.766 130.041 241.521C133.073 243.791 135.795 246.448 138.138 249.425C137.218 252.922 136.329 256.434 135.409 259.933C126.721 248.226 114.004 242.978 99.7812 241.526C103.34 235.846 106.932 230.208 110.714 224.686ZM127.492 231.423C128.24 230.027 128.88 228.049 128.781 226.429C128.69 225.03 128.113 223.986 126.924 223.311C125.735 222.635 124.41 222.615 122.991 223.329C121.232 224.216 119.878 225.832 118.882 227.52C117.517 229.828 116.194 232.16 114.913 234.515C118.199 235.498 121.406 236.729 124.506 238.196C125.439 235.905 126.427 233.646 127.492 231.423Z" fill="#0C1E4F"/>
<path d="M173.802 211.871C171.247 213.115 168.745 214.424 166.257 215.806C165.67 214.615 165.374 214.048 164.785 212.958C164.511 214.427 163.935 215.821 163.092 217.054C162.139 218.488 160.504 219.848 159.113 220.757C157.626 221.727 155.617 222.683 153.83 223.045C152.209 223.397 150.535 223.436 148.899 223.161C147.39 222.87 145.942 222.321 144.62 221.538C143.182 220.701 141.87 219.665 140.724 218.458C139.481 217.17 138.502 215.83 137.874 214.372C137.243 212.958 136.975 211.41 137.094 209.866C137.224 208.327 137.813 206.829 138.923 205.239C140.195 203.416 141.93 202.008 143.682 200.755C145.452 199.472 147.45 198.538 149.57 198.005C151.201 197.592 152.902 197.529 154.559 197.821C153.887 196.9 153.549 196.42 152.866 195.444C155.906 193.633 158.975 191.901 162.104 190.246C166.183 197.382 170.384 204.381 173.802 211.871ZM159.33 204.364C158.366 203.372 156.964 202.881 155.144 202.932C153.138 202.991 151.199 203.766 149.537 204.865C148.608 205.454 147.779 206.187 147.08 207.037C146.533 207.703 146.13 208.476 145.899 209.306C145.706 210.017 145.712 210.767 145.916 211.475C146.126 212.177 146.497 212.82 146.999 213.354C147.516 213.907 148.143 214.346 148.84 214.643C149.578 214.968 150.368 215.161 151.173 215.211C152.066 215.261 152.96 215.159 153.819 214.91C154.808 214.629 155.747 214.199 156.605 213.634C157.405 213.131 158.128 212.516 158.753 211.808C159.297 211.19 159.756 210.501 160.114 209.759C160.435 209.102 160.613 208.384 160.635 207.654C160.657 206.982 160.531 206.313 160.267 205.695C159.895 205.165 159.708 204.898 159.33 204.366V204.364Z" fill="#0C1E4F"/>
<path d="M169.129 186.88C172.115 185.615 175.128 184.412 178.249 183.511C178.935 185.209 179.266 186.028 179.923 187.646C180.488 185.897 181.927 183.986 183.433 182.961C185.562 181.512 187.954 180.85 190.458 180.309C191.112 182.594 191.787 184.874 192.482 187.149C190.958 187.403 189.468 187.835 188.044 188.437C186.899 188.907 185.853 189.59 184.964 190.451C184.238 191.165 183.685 192.034 183.344 192.993C183.016 193.972 183.008 195.031 183.32 196.015C184.749 199.568 186.16 203.126 187.553 206.691C184.868 207.472 182.247 208.348 179.631 209.34C176.429 201.709 172.743 194.324 169.129 186.88Z" fill="#0C1E4F"/>
<path d="M208.223 191.288C208.845 192.576 210.04 193.543 211.757 194.207C213.755 194.978 215.978 195.127 218.101 195.067C219.551 195.049 220.992 194.839 222.387 194.444C223.688 194.056 224.676 193.594 225.343 193.003C229.495 193.416 233.603 194.191 237.62 195.321C237.243 196.45 236.462 197.399 235.427 197.986C234.339 198.639 232.948 199.066 231.275 199.376C229.401 199.703 227.511 199.934 225.613 200.066C223.379 200.25 221.143 200.381 218.906 200.498C216.329 200.631 213.753 200.683 211.177 200.443C208.989 200.257 206.837 199.775 204.779 199.011C202.986 198.297 201.333 197.272 199.897 195.983C198.719 194.901 197.532 193.123 197.096 191.553C196.613 189.932 196.674 188.199 197.269 186.616C197.975 184.775 199.391 183.384 200.835 182.237C202.786 180.691 205.323 179.763 207.732 179.025C210.827 178.114 214.033 177.635 217.259 177.604C220.151 177.562 223.046 177.667 225.907 178.268C228.116 178.71 230.23 179.537 232.153 180.711C233.713 181.739 235.041 183.081 236.052 184.652C236.915 186.027 237.688 187.904 237.918 189.534C238.023 190.27 238.093 190.938 238.135 191.479C238.178 192.02 238.194 192.598 238.183 193.206C228.296 190.412 218.392 190.216 208.223 191.288ZM226.073 187.334C225.742 186.143 224.809 185.107 223.213 184.339C221.349 183.443 219.196 183.202 217.141 183.266C215.043 183.332 212.833 183.678 210.96 184.67C209.416 185.49 208.446 186.55 208.045 187.768C214.064 187.185 220.041 186.977 226.075 187.334H226.073Z" fill="#0C1E4F"/>
<path d="M116.808 144.279C118.733 135.368 124.995 128.035 133.416 124.547C139.779 121.911 148.012 117.585 155.483 110.826C166.351 100.991 177.227 84.4345 182.344 76.1385C183.853 73.6922 187.313 73.9664 188.441 76.6373C192.305 85.7561 195.801 105.197 171.947 128.129C171.947 128.129 172.173 133.999 196.946 136.78C200.058 137.13 204.045 139.429 205.276 142.497C207.889 149.019 210.158 160.087 208.2 177.025C207.54 182.744 204.397 187.799 199.719 190.679C197.426 192.091 194.935 193.566 192.855 194.644C191.125 195.542 189.059 194.591 188.468 192.64C187.3 188.774 186.851 182.127 193.856 175.705C193.856 175.705 190.689 169.892 193.983 160.161C193.983 160.161 155.454 159.583 132.153 181.881C132.151 181.892 110.677 172.653 116.808 144.279Z" fill="#F3D4CD"/>
<path d="M131.06 155.467C129.12 155.481 127.194 155.143 125.376 154.469C125.284 154.435 125.21 154.365 125.17 154.276C125.129 154.187 125.126 154.086 125.16 153.994C125.195 153.903 125.264 153.829 125.353 153.788C125.442 153.748 125.544 153.745 125.635 153.779C134.021 156.941 144.087 151.55 151.053 146.471C158.653 140.929 164.317 134.544 164.374 134.479C164.44 134.411 164.53 134.371 164.624 134.367C164.719 134.363 164.812 134.395 164.883 134.458C164.954 134.521 164.998 134.608 165.007 134.703C165.015 134.797 164.986 134.891 164.926 134.965C164.869 135.03 159.159 141.47 151.493 147.059C146.981 150.35 142.682 152.708 138.715 154.072C136.01 155.001 133.45 155.467 131.06 155.467Z" fill="#EF6969"/>
<path d="M138.473 165.616C138.4 165.616 138.328 165.594 138.268 165.552C138.207 165.511 138.16 165.452 138.133 165.384C138.107 165.323 135.783 159.908 124.567 159.908C124.47 159.908 124.376 159.869 124.307 159.8C124.238 159.731 124.199 159.638 124.199 159.54C124.199 159.442 124.238 159.349 124.307 159.28C124.376 159.211 124.47 159.172 124.567 159.172C136.333 159.172 138.72 164.878 138.816 165.112C138.834 165.157 138.843 165.205 138.842 165.253C138.841 165.302 138.831 165.349 138.812 165.394C138.793 165.438 138.765 165.478 138.73 165.512C138.696 165.546 138.655 165.572 138.61 165.59C138.566 165.607 138.52 165.616 138.473 165.616Z" fill="#EF6969"/>
<path d="M108.995 153.153C108.916 153.153 108.84 153.128 108.776 153.081C108.713 153.034 108.667 152.968 108.643 152.893C106.422 145.715 108.064 140.086 109.83 136.631C111.746 132.889 114.157 130.871 114.258 130.788C114.333 130.729 114.429 130.702 114.524 130.712C114.62 130.722 114.707 130.769 114.768 130.843C114.83 130.917 114.859 131.012 114.852 131.108C114.844 131.203 114.799 131.292 114.727 131.355C114.703 131.376 112.315 133.38 110.471 136.995C108.776 140.321 107.203 145.744 109.346 152.676C109.363 152.731 109.367 152.789 109.358 152.846C109.348 152.903 109.325 152.957 109.291 153.003C109.257 153.05 109.212 153.087 109.161 153.113C109.109 153.139 109.052 153.153 108.995 153.153Z" fill="#F3D4CD"/>
<path d="M68.7273 125.059C68.6393 125.06 68.5539 125.029 68.4863 124.973C68.4188 124.917 68.3737 124.838 68.3592 124.751C67.222 117.871 74.2257 114.443 74.2956 114.416C74.3394 114.394 74.3872 114.38 74.4362 114.377C74.4851 114.373 74.5343 114.38 74.5807 114.396C74.6272 114.412 74.67 114.436 74.7067 114.469C74.7434 114.502 74.7731 114.541 74.7942 114.586C74.8154 114.63 74.8274 114.678 74.8296 114.727C74.8319 114.776 74.8243 114.825 74.8073 114.871C74.7904 114.917 74.7644 114.96 74.7308 114.996C74.6973 115.031 74.657 115.06 74.6121 115.08C74.5459 115.112 68.0409 118.303 69.0916 124.632C69.107 124.728 69.0837 124.826 69.0268 124.905C68.9699 124.984 68.884 125.037 68.788 125.053L68.7273 125.059Z" fill="#F3D4CD"/>
<path d="M277.324 248.781C256.429 248.021 236.023 253.86 218.199 261.891C231.126 232.524 267.365 217.346 267.365 217.346C269.873 236.108 277.324 248.781 277.324 248.781Z" fill="#FDB127"/>
</svg>
