<svg width="434" height="285" viewBox="0 0 434 285" fill="none" xmlns="http://www.w3.org/2000/svg">
<g clip-path="url(#clip0)">
<path d="M404.402 138.539C404.417 140.048 404.947 141.506 405.904 142.672C405.915 142.687 405.926 142.701 405.939 142.714C406.862 143.824 408.075 144.657 409.443 145.12L409.538 145.589V145.605L412.223 145.585H412.294C415.655 145.557 418.51 143.621 419.607 140.921L419.655 140.804C420.188 139.421 420.233 137.898 419.784 136.486C419.178 134.679 417.884 133.183 416.183 132.322L416.036 132.245C414.846 131.656 413.533 131.357 412.205 131.371L411.862 131.381L409.741 131.399L410.231 131.618C409.015 131.91 407.884 132.479 406.925 133.281C406.876 133.319 406.83 133.361 406.784 133.402C406.065 134.018 405.484 134.777 405.075 135.63C404.667 136.483 404.441 137.413 404.412 138.358C404.402 138.418 404.402 138.477 404.402 138.539Z" fill="#D5D9E3"/>
<path d="M410.933 145.533C414.841 145.011 417.588 141.435 417.068 137.545C416.548 133.655 412.958 130.924 409.049 131.446C405.141 131.968 402.394 135.544 402.914 139.434C403.435 143.324 407.024 146.055 410.933 145.533Z" fill="#0C1E4F"/>
<path d="M411.315 138.297C411.315 137.143 410.429 136.208 409.335 136.208C408.242 136.208 407.355 137.143 407.355 138.297C407.355 139.451 408.242 140.387 409.335 140.387C410.429 140.387 411.315 139.451 411.315 138.297Z" fill="#EF6969"/>
<path d="M418.078 114.559V121.975L425.538 121.097L433.303 120.186C433.353 120.18 433.402 120.17 433.45 120.156C433.599 120.114 433.729 120.022 433.817 119.894C433.878 119.803 433.907 119.695 433.902 119.587C433.896 119.478 433.856 119.374 433.787 119.289L431.281 113.849L431.162 113.702L431.135 113.666H431.016L425.536 114.039L418.078 114.559Z" fill="#F9F9F9"/>
<path d="M230.224 127.907L240.606 125.086C240.606 125.086 242.346 117.214 247.288 120.488C252.229 123.762 240.761 113.507 240.761 113.507L228.676 115.824L230.224 127.907Z" fill="#EF6969"/>
<path d="M338.544 137.501L347.067 134.187C347.067 134.187 346.505 124.933 354.689 128.815C362.872 132.698 346.601 122.442 346.601 122.442L335.754 126.246L338.544 137.501Z" fill="#EF6969"/>
<path d="M226.196 127.411L230.229 127.846C230.467 121.527 234.741 116.492 239.979 116.492C245.371 116.492 249.742 121.825 249.742 128.402C249.742 128.758 249.73 129.111 249.704 129.46L308.78 135.184L338.567 136.818C338.989 130.717 343.183 125.924 348.296 125.924C352.328 125.924 355.788 128.906 357.278 133.161L358.579 118.559L410.396 113.647L358.377 103.855L358.175 103.819C354.443 99.6101 338.876 91.2547 334.474 88.9356C333.735 88.5447 279.977 86.8926 279.977 86.8926C279.977 86.9268 266.491 88.5447 266.491 88.5447C266.491 88.5447 227.11 99.1991 222.174 101.117C220.72 101.681 222.375 117.054 222.174 118.485L226.196 127.411Z" fill="#F3D4CD"/>
<path d="M308.391 134.317C308.592 134.586 308.806 134.858 309.032 135.133C309.046 135.149 309.058 135.167 309.074 135.184L334.68 137.315L335.1 137.35L335.527 137.386L338.536 137.529C338.536 137.289 338.552 137.053 338.568 136.818C338.989 130.715 343.183 125.921 348.296 125.921C352.329 125.921 355.789 128.905 357.279 133.161C357.799 134.663 358.063 136.242 358.059 137.831C358.059 138.045 358.059 138.256 358.045 138.466L373.243 139.485L431.2 113.679C431.2 113.679 360.823 103.763 358.371 103.851C349.903 104.153 329.247 105.405 313.421 110.538C313.421 110.538 299.384 122.214 308.391 134.317Z" fill="#F3D4CD"/>
<path d="M311.658 135.009C311.556 135.009 311.457 134.97 311.383 134.901C311.308 134.831 311.262 134.736 311.255 134.634C310.527 124.29 312.529 117.748 314.336 114.083C316.316 110.067 318.463 108.536 318.554 108.474L318.685 108.381L318.842 108.405C348.42 112.654 372.551 117.464 372.803 117.504C372.856 117.513 372.906 117.533 372.951 117.562C372.997 117.591 373.035 117.629 373.066 117.674C373.096 117.718 373.117 117.768 373.128 117.821C373.139 117.873 373.139 117.928 373.128 117.98C373.117 118.033 373.096 118.083 373.066 118.128C373.036 118.172 372.997 118.21 372.952 118.239C372.907 118.268 372.856 118.288 372.803 118.298C372.75 118.307 372.696 118.306 372.643 118.294C372.403 118.245 348.384 113.458 318.909 109.227C318.437 109.608 316.667 111.177 315.039 114.504C313.293 118.078 311.36 124.461 312.071 134.582C312.079 134.688 312.043 134.793 311.973 134.874C311.903 134.954 311.803 135.003 311.696 135.011L311.658 135.009Z" fill="#EF6969"/>
<path d="M360.394 131.284C360.54 131.564 360.756 131.801 361.022 131.971C361.287 132.142 361.593 132.24 361.908 132.257L373.199 133.299L373.804 133.232L381.695 132.337L400.005 130.262L401.749 130.061L402.076 130.024L402.882 129.934L406.882 129.48L411.721 128.936L418.758 128.131L422.559 127.699L428.494 127.026L430.242 126.825C430.626 126.783 430.998 126.671 431.341 126.495C431.717 126.306 432.041 126.029 432.287 125.689L433.938 120.746C433.989 120.677 434.012 120.591 434.002 120.506C433.993 120.42 433.952 120.342 433.888 120.285C433.834 120.236 433.77 120.199 433.7 120.177C433.631 120.154 433.557 120.147 433.485 120.156L433.319 120.174L417.617 122.016L414.665 122.326L405.465 123.307L402.797 123.587L374.872 126.515L374.445 126.559L373.199 126.69L362.279 125.683C361.398 125.602 360.577 126.061 360.317 126.779C359.924 127.865 359.601 129.553 360.394 131.284Z" fill="#0C1E4F"/>
<path d="M372.309 122.716L374.504 125.962L374.875 126.508L374.994 126.683L402.641 123.742L405.278 123.462L414.823 122.446L417.803 122.128L433.536 120.462L431.159 113.678L431.136 113.644L431.022 113.654H431.02L418.079 114.691L374.545 118.179L372.309 122.716Z" fill="#000F1F"/>
<path d="M373.204 133.299L381.687 132.356L381.701 132.337L400.008 130.262L401.752 130.061L402.079 130.024L402.886 129.934L406.886 129.478L411.725 128.934L418.761 128.129L422.562 127.697L428.498 127.024C428.498 127.024 427.147 129.41 427.357 131.421C427.361 131.483 427.361 131.546 427.357 131.608C427.347 131.772 427.306 131.933 427.236 132.082C427.11 132.325 426.925 132.533 426.699 132.686C426.472 132.84 426.21 132.934 425.937 132.96L422.344 133.432L418.235 133.986L409.509 135.13L404.079 135.843L402.037 136.109L381.703 138.779L373.204 139.534C370.741 135.944 373.204 133.299 373.204 133.299Z" fill="#1941AA"/>
<path d="M358.084 103.711C335.077 103.145 318.719 108.875 318.719 108.875C318.719 108.875 315.291 101.622 300.434 92.8289C300.434 92.8289 328.217 88.9645 335.764 89.5206C340.121 91.8316 354.191 99.4697 358.084 103.711Z" fill="#1941AA"/>
<path d="M270.604 98.8333C270.522 98.8336 270.442 98.8089 270.374 98.7624C270.306 98.716 270.255 98.6501 270.226 98.5735C270.196 98.4968 270.191 98.4131 270.211 98.3336C270.231 98.254 270.274 98.1823 270.336 98.1281L276.969 92.269C277.049 92.1982 277.154 92.1621 277.261 92.1687C277.368 92.1754 277.468 92.2241 277.539 92.3043C277.61 92.3844 277.646 92.4894 277.639 92.5961C277.632 92.7029 277.584 92.8026 277.503 92.8734L270.87 98.7265C270.797 98.7935 270.703 98.8315 270.604 98.8333Z" fill="#EF6969"/>
<path d="M292.576 109.794C292.478 109.795 292.383 109.76 292.308 109.695C292.234 109.631 292.186 109.542 292.173 109.445C291.332 103.266 299.699 94.6382 300.056 94.2735C300.093 94.2356 300.137 94.2055 300.186 94.1847C300.235 94.1639 300.287 94.1529 300.34 94.1524C300.393 94.1518 300.446 94.1617 300.495 94.1814C300.544 94.2012 300.589 94.2304 300.627 94.2674C300.665 94.3045 300.695 94.3486 300.716 94.3973C300.736 94.446 300.747 94.4983 300.748 94.5513C300.748 94.6042 300.739 94.6568 300.719 94.7059C300.699 94.755 300.67 94.7998 300.633 94.8376C300.548 94.9243 292.185 103.546 292.971 109.344C292.985 109.45 292.957 109.557 292.892 109.642C292.828 109.727 292.732 109.783 292.626 109.798L292.576 109.794Z" fill="#EF6969"/>
<path d="M272.47 96.3506C272.47 96.3506 272.149 98.2949 280.071 98.4037C283.817 98.4541 287.402 99.9712 289.862 102.671C292.048 105.071 293.846 108.514 293.197 113.102C293.197 113.102 297.286 120.911 308.48 119.471C308.48 119.471 305.69 126.913 307.704 133.2L267.105 129.065C267.105 129.065 259.618 119.227 259.411 116.17C259.203 113.114 256.925 109.687 265.837 101.942L272.47 96.3506Z" fill="#0C1E4F"/>
<path d="M262.835 92.8545L255.215 104.913L236.775 104.949L236.734 101.109C236.734 101.109 262.786 92.8384 262.835 92.8545Z" fill="#1941AA"/>
<path d="M371.024 123.619L372.556 125.775C372.776 126.058 373.065 126.279 373.397 126.415C373.728 126.552 374.09 126.599 374.445 126.553L382.276 125.725L391.099 124.794L391.065 116.702L382.276 117.23L374.276 117.71C373.35 117.764 372.55 118.272 372.229 119.007L370.864 122.122C370.757 122.364 370.715 122.629 370.743 122.892C370.771 123.155 370.868 123.406 371.024 123.619Z" fill="#D5D9E3"/>
<path d="M240.398 127.812C240.281 127.812 240.162 127.812 240.045 127.812H240.033H237.844L238.356 128.065C234.868 128.952 232.293 132.049 232.293 135.736C232.303 137.344 232.802 138.91 233.723 140.228C234.645 141.546 235.945 142.553 237.453 143.116L237.551 143.658H240.398C244.876 143.658 248.504 140.11 248.504 135.736C248.504 131.362 244.876 127.812 240.398 127.812Z" fill="#000F1F"/>
<path d="M238.067 143.658C242.14 143.658 245.442 140.111 245.442 135.736C245.442 131.36 242.14 127.813 238.067 127.813C233.993 127.813 230.691 131.36 230.691 135.736C230.691 140.111 233.993 143.658 238.067 143.658Z" fill="#D5D9E3"/>
<path d="M237.99 138.068C239.119 138.068 240.034 137.024 240.034 135.736C240.034 134.449 239.119 133.405 237.99 133.405C236.861 133.405 235.945 134.449 235.945 135.736C235.945 137.024 236.861 138.068 237.99 138.068Z" fill="#0C1E4F"/>
<path d="M348.679 138.924C348.568 138.924 348.46 138.924 348.349 138.924H346.308L346.786 139.149C343.536 139.929 341.141 142.663 341.141 145.915C341.141 148.879 343.135 151.41 345.947 152.427L346.04 152.905H348.693C351.919 152.885 355.416 149.798 355.416 145.937C355.416 142.077 352.065 139.156 348.679 138.924Z" fill="#000F1F"/>
<path d="M353.428 145.937C353.431 147.779 352.704 149.546 351.405 150.852C350.107 152.158 348.343 152.896 346.5 152.905C342.706 152.905 339.629 149.776 339.629 145.915C339.629 142.055 342.706 138.924 346.5 138.924C350.295 138.924 353.428 142.077 353.428 145.937Z" fill="#D5D9E3"/>
<path d="M346.429 147.971C347.481 147.971 348.334 147.05 348.334 145.915C348.334 144.78 347.481 143.86 346.429 143.86C345.376 143.86 344.523 144.78 344.523 145.915C344.523 147.05 345.376 147.971 346.429 147.971Z" fill="#0C1E4F"/>
<path d="M313.875 60.3682C313.875 60.3682 313.794 61.3856 313.673 61.4441C311.705 62.3306 296.253 72.0319 300.824 92.8913L299.787 93.6973L276.566 90.7415C276.566 90.7415 270.143 70.0453 285.065 60.3682" fill="#1941AA"/>
<path d="M246.512 64.6761C246.512 64.6761 246.512 72.2015 249.207 74.3472C249.207 74.3472 274.287 63.5962 295.012 73.8093L296.702 73.1263C296.406 71.0873 294.19 65.9434 297.293 64.664C297.293 64.6761 270.981 54.7249 246.512 64.6761Z" fill="#F3D4CD"/>
<path d="M313.874 60.3685C313.874 60.3685 273.043 46.3917 246.512 64.6701H297.293C297.293 64.6701 302.061 61.4525 313.874 60.3685Z" fill="#F3D4CD"/>
<path d="M294.999 74.1876C294.917 74.1877 294.837 74.1632 294.77 74.1171C294.703 74.0711 294.651 74.0057 294.621 73.9297C294.517 73.6577 292.081 67.2365 293.908 64.9335C293.941 64.892 293.981 64.8573 294.028 64.8315C294.074 64.8057 294.125 64.7892 294.177 64.783C294.23 64.7769 294.283 64.7811 294.334 64.7955C294.385 64.8099 294.433 64.8342 294.474 64.867C294.516 64.8999 294.551 64.9405 294.576 64.9867C294.602 65.0329 294.619 65.0838 294.625 65.1363C294.631 65.1889 294.627 65.2422 294.612 65.2931C294.598 65.3441 294.574 65.3917 294.541 65.4332C293.261 67.0451 294.708 71.9048 295.376 73.6396C295.399 73.7007 295.407 73.7666 295.4 73.8317C295.392 73.8967 295.369 73.9589 295.332 74.0129C295.294 74.0669 295.245 74.111 295.187 74.1414C295.129 74.1719 295.064 74.1877 294.999 74.1876Z" fill="#EF6969"/>
<path d="M290.586 64.1793C290.557 64.1823 290.528 64.1823 290.499 64.1793C290.409 64.1592 281.325 62.2089 274.333 62.5332C274.28 62.5358 274.227 62.5278 274.177 62.5099C274.127 62.492 274.081 62.4644 274.042 62.4287C274.003 62.3931 273.971 62.3501 273.949 62.3022C273.926 62.2542 273.913 62.2023 273.911 62.1494C273.908 62.0965 273.916 62.0436 273.934 61.9938C273.952 61.9439 273.979 61.8981 274.015 61.8589C274.087 61.7797 274.188 61.7324 274.295 61.7273C281.394 61.3989 290.578 63.3714 290.671 63.3916C290.778 63.4028 290.876 63.456 290.943 63.5395C291.011 63.623 291.043 63.73 291.032 63.8368C291.02 63.9437 290.967 64.0417 290.883 64.1094C290.8 64.177 290.693 64.2087 290.586 64.1975V64.1793Z" fill="#EF6969"/>
<path d="M371.024 123.619L372.556 125.775C372.776 126.058 373.065 126.279 373.397 126.415C373.728 126.552 374.09 126.599 374.445 126.553L382.276 125.725V117.23L374.276 117.71C373.35 117.764 372.55 118.272 372.229 119.008L370.864 122.122C370.757 122.364 370.715 122.629 370.743 122.892C370.771 123.155 370.868 123.406 371.024 123.619Z" fill="#FDB127"/>
<path d="M425.535 114.039V121.091L433.3 120.18C433.35 120.175 433.399 120.164 433.447 120.15C433.596 120.109 433.726 120.016 433.814 119.888C433.874 119.797 433.904 119.69 433.899 119.581C433.893 119.472 433.853 119.368 433.784 119.284L431.277 113.844L431.158 113.696L431.132 113.66H431.013L425.535 114.039Z" fill="#D5D9E3"/>
<path d="M206.1 284.649C216.385 283.243 224.13 277.768 223.398 272.42C222.666 267.072 213.734 263.876 203.448 265.282C193.162 266.688 185.418 272.164 186.15 277.512C186.882 282.86 195.814 286.056 206.1 284.649Z" fill="#FDB127"/>
<path d="M169.855 99.7579C169.855 99.7579 138.849 181.578 132.799 187.961C126.748 194.343 53.5744 173.998 40.737 168.417C40.737 168.417 30.2828 146.274 43.6706 128.322L114.09 149.461L132.799 115.353C132.799 115.353 126.145 112.395 131.079 97.0177C137.992 75.4592 169.841 98.0009 169.841 98.0009L169.855 99.7579Z" fill="#EF6969"/>
<path d="M27.5873 161.448C31.5295 147.408 28.9637 134.411 21.8562 132.419C14.7488 130.427 5.7913 140.194 1.84904 154.235C-2.09323 168.275 0.472641 181.272 7.58005 183.264C14.6875 185.256 23.645 175.489 27.5873 161.448Z" fill="#FDB127"/>
<path d="M169.84 99.7941C169.84 99.7941 194.781 160.239 195.882 169.211C196.983 178.183 203.947 256.98 203.947 256.98C203.947 256.98 180.84 273.137 159.567 259.374L167.453 173.001C167.453 173.001 157.089 144.866 152.829 143.379C148.569 141.892 162.872 97.2011 169.84 99.7941Z" fill="#EF6969"/>
<path d="M139.844 78.2292C139.844 78.2292 134.733 86.9957 135.14 89.9031C135.14 89.9031 166.765 94.6157 170.273 104.672C170.273 104.672 175.159 97.4063 175.011 86.1878L169.888 74.6348L148.125 73.9639L139.844 78.2292Z" fill="#F3D4CD"/>
<path d="M186.556 41.6882L196.097 55.5481L201.597 39.2583C201.597 39.2583 204.942 38.6377 207.2 40.8702C207.2 40.8702 206.079 71.2214 199.252 71.5538C199.252 71.5538 191.669 70.7761 184.225 58.9713C184.225 58.9713 183.12 65.0863 179.553 74.2638C178.459 77.0845 170.293 40.6364 176.485 39.3792C182.677 38.1219 184.193 37.447 184.659 38.5471C185.124 39.6472 186.556 41.6882 186.556 41.6882Z" fill="#F3D4CD"/>
<path d="M149.099 37.6396C149.099 37.6396 138.597 49.0717 138.488 52.505C138.379 55.9382 140.865 73.1045 140.865 73.1045L159.213 70.328L149.099 37.6396Z" fill="#F3D4CD"/>
<path d="M180.405 36.2546L184.165 37.8322C184.832 38.1259 185.407 38.5941 185.83 39.1874C186.253 39.7807 186.508 40.477 186.568 41.203C186.593 41.3643 186.589 41.5289 186.554 41.6885C186.371 42.2265 184.31 39.4481 182.598 41.0236C180.887 42.5992 173.324 51.41 179.562 73.6637C179.562 73.6637 180.179 85.801 174.995 86.7258C168.757 87.846 149.341 77.6188 139.844 78.2293C139.844 78.2293 139.467 73.0995 143.85 68.6508C145.143 67.3392 148.869 51.6558 149.093 37.6388C149.093 37.6388 150.449 31.5318 160.244 32.0134C170.039 32.4949 180.405 36.2546 180.405 36.2546Z" fill="#1941AA"/>
<path d="M175.677 32.1238C175.322 32.6821 175.102 33.3144 175.032 33.9717C174.962 34.629 175.044 35.2935 175.273 35.9137C176.035 38.1078 162.551 33.3509 162.551 33.3509L164.232 27.4333L171.055 27.2822L175.156 29.0371L175.677 32.1238Z" fill="#FDB127"/>
<path d="M163.29 26.4945L163.242 27.5764L171.666 28.8982C176.69 34.5296 179.581 32.3354 180.452 31.3764C184.128 25.745 184.15 18.2922 183.769 15.5258C183.692 14.9617 183.622 14.3955 183.567 13.8293C182.809 6.25363 173.162 5.97155 168.139 6.40675C166.922 6.49963 165.737 6.84224 164.658 7.41319C163.579 7.98413 162.63 8.77116 161.869 9.72516C155.889 17.4036 163.29 26.4945 163.29 26.4945Z" fill="#FDB127"/>
<path d="M161.636 11.257C161.777 11.3385 161.939 11.3735 162.101 11.3568C162.263 11.3401 162.415 11.2727 162.536 11.1643L162.582 11.122C163.241 10.5066 163.934 9.92809 164.657 9.38923C164.997 9.1132 165.378 8.90567 165.727 8.65986C166.102 8.45838 166.453 8.22265 166.838 8.05542C167.03 7.96677 167.207 7.85394 167.405 7.78543C167.602 7.71693 167.788 7.62626 167.977 7.54164C168.369 7.40463 168.752 7.25755 169.151 7.13868C169.349 7.07431 169.551 7.02051 169.756 6.97749C169.957 6.93316 170.159 6.87473 170.361 6.83645L170.965 6.72564C171.167 6.68937 171.369 6.66519 171.582 6.63497C171.796 6.60475 171.986 6.59065 172.203 6.57251L172.514 6.53826L172.826 6.52214C173.246 6.49595 173.667 6.48587 174.091 6.48184C174.302 6.48184 174.516 6.48184 174.728 6.48184L175.369 6.50804C175.796 6.52617 176.226 6.56042 176.657 6.59266C177.52 6.67325 178.389 6.77937 179.264 6.911C179.702 6.97951 180.141 7.05002 180.581 7.1286L181.885 7.35829L181.948 7.37038C182.111 7.40042 182.279 7.37784 182.428 7.30591C182.428 7.30591 182.726 6.35894 178.305 3.81826C177.698 3.4653 177.043 3.20262 176.361 3.03852H176.349H176.333C174.629 2.71182 172.882 2.67097 171.165 2.91763C170.913 2.96196 170.659 2.99621 170.407 3.04658L169.653 3.22389C169.148 3.35339 168.653 3.5149 168.169 3.70744C167.679 3.89854 167.2 4.11647 166.733 4.36024C166.268 4.61576 165.817 4.89832 165.384 5.20647C164.95 5.51778 164.534 5.85415 164.138 6.21387C163.947 6.39924 163.757 6.58863 163.572 6.78205C163.481 6.87876 163.384 6.96943 163.296 7.07017L163.038 7.37844C162.87 7.57992 162.695 7.7814 162.538 8.00102C162.38 8.22063 162.235 8.44226 162.088 8.66188C161.94 8.88203 161.805 9.11078 161.685 9.34692C161.558 9.58466 161.431 9.81234 161.314 10.0521C161.208 10.2571 161.183 10.494 161.243 10.7167C161.302 10.9394 161.442 11.1319 161.636 11.257Z" fill="#000F1F"/>
<path d="M161.979 11.3973C162.175 11.4334 162.377 11.396 162.547 11.2923C162.716 11.1885 162.842 11.0257 162.898 10.8352V10.8231C163.187 9.9553 163.553 9.11511 163.991 8.31263C164.205 7.92597 164.444 7.55377 164.707 7.19844C164.964 6.84783 165.245 6.51527 165.548 6.20312C166.157 5.59014 166.841 5.05607 167.584 4.61343C167.959 4.39098 168.345 4.18919 168.741 4.00898C168.943 3.91831 169.145 3.82966 169.346 3.74907L169.653 3.6302C169.752 3.59191 169.854 3.55565 169.947 3.52341L170.016 3.4952C170.139 3.44685 170.217 3.26954 170.274 3.12851C170.289 3.07982 170.285 3.02717 170.263 2.98118C170.241 2.93518 170.202 2.89927 170.155 2.88068C168.709 2.41929 166.433 3.24738 166.324 3.28365C165.591 3.66274 164.918 4.14595 164.324 4.7182C163.931 5.08685 163.574 5.49159 163.257 5.92709C162.932 6.36081 162.643 6.82114 162.394 7.30321C161.901 8.26763 161.549 9.29756 161.348 10.3617C161.3 10.5822 161.339 10.8127 161.457 11.0054C161.574 11.1981 161.761 11.3384 161.979 11.3973Z" fill="#0C1E4F"/>
<path d="M162.092 10.8804C162.184 11.0302 162.323 11.1448 162.488 11.2055C162.652 11.2663 162.833 11.2695 163 11.2149L163.038 11.2008L163.679 10.9852L164.336 10.7716C164.776 10.6386 165.209 10.4895 165.653 10.3686C166.53 10.1128 167.409 9.875 168.286 9.66949C169.163 9.46398 170.044 9.28668 170.917 9.14765C171.355 9.07311 171.792 9.02274 172.228 8.96431C172.663 8.90588 173.097 8.87767 173.528 8.85752C175.211 8.73927 176.903 8.86207 178.551 9.2222C179.345 9.41582 180.121 9.67667 180.871 10.0019C181.621 10.3596 182.343 10.7746 183.029 11.2431L183.101 11.2914C183.646 11.6521 184.337 11.2088 184.339 11.1927C184.529 9.24839 182.097 6.91524 181.17 6.26445C180.59 5.99443 179.99 5.7701 179.375 5.59352C177.383 5.05706 175.304 4.92687 173.26 5.2107C172.266 5.33136 171.283 5.52668 170.318 5.795C169.359 6.05563 168.417 6.37388 167.496 6.74801C166.579 7.12178 165.685 7.54829 164.818 8.0254C164.385 8.26919 163.955 8.51097 163.536 8.78297C163.116 9.05497 162.709 9.31085 162.306 9.63524C162.122 9.7793 161.998 9.98652 161.959 10.2166C161.919 10.4468 161.967 10.6833 162.092 10.8804Z" fill="#0C1E4F"/>
<path d="M162.785 10.9331C162.835 11.0816 162.926 11.2134 163.047 11.3134C163.167 11.4134 163.314 11.4778 163.469 11.4992H163.499C165.159 11.6866 166.836 11.8297 168.469 11.9929C170.102 12.1561 171.732 12.3293 173.324 12.5469L174.516 12.7222C174.718 12.7504 174.919 12.7827 175.109 12.8169C175.298 12.8512 175.5 12.8753 175.697 12.9096C176.48 13.0406 177.254 13.1836 178.024 13.3307C178.794 13.4778 179.551 13.649 180.309 13.8223C181.067 13.9956 181.805 14.1991 182.567 14.3764L182.654 14.3965C182.772 14.4249 182.893 14.4397 183.014 14.4409C184.978 13.3206 184.337 11.1769 184.337 11.1769L184.371 11.1668C184.273 11.0472 184.16 10.9409 184.035 10.8505C183.261 10.3102 182.433 9.85168 181.565 9.4824C180.717 9.1264 179.845 8.83411 178.954 8.60797C177.213 8.18028 175.428 7.95713 173.635 7.94308C171.872 7.91942 170.111 8.05429 168.372 8.34604C167.508 8.49111 166.647 8.67647 165.796 8.90415C165.37 9.021 164.945 9.14189 164.523 9.28696C164.102 9.43203 163.691 9.57709 163.257 9.76044C163.047 9.86215 162.882 10.0387 162.794 10.2555C162.707 10.4724 162.704 10.714 162.785 10.9331Z" fill="#000F1F"/>
<path d="M161.298 11.0504C161.297 11.2071 161.337 11.3613 161.413 11.4982C161.489 11.6351 161.6 11.7501 161.733 11.8322C162.493 12.2734 163.27 12.6563 164.046 13.0209C164.822 13.3856 165.606 13.7322 166.393 14.0525C167.963 14.7053 169.548 15.2816 171.143 15.8175C172.738 16.3535 174.339 16.8249 175.964 17.2279C176.77 17.4173 177.591 17.5845 178.416 17.7235C178.819 17.7961 179.242 17.8545 179.656 17.9069L179.881 17.9331C180.012 17.9476 180.145 17.9238 180.262 17.8646C180.778 17.6186 181.218 17.2382 181.536 16.7634C181.853 16.2886 182.037 15.737 182.067 15.1667C182.078 15.0243 182.051 14.8816 181.989 14.7531C181.926 14.6245 181.831 14.5149 181.712 14.4353C181.309 14.1956 181.045 14.0082 180.652 13.8148C180.258 13.6214 179.912 13.5529 179.516 13.3876C178.726 13.0532 177.926 12.759 177.121 12.4931C175.512 11.9735 173.874 11.5483 172.216 11.2197C170.564 10.8792 168.899 10.6152 167.219 10.4138C165.525 10.2027 163.819 10.1092 162.112 10.1337C161.884 10.1513 161.672 10.2566 161.52 10.4277C161.368 10.5987 161.288 10.822 161.298 11.0504Z" fill="#0C1E4F"/>
<path d="M161.501 12.3227C161.773 12.6028 162.055 12.8788 162.34 13.1428C162.624 13.4067 162.908 13.6767 163.197 13.9346C163.785 14.4383 164.384 14.9286 164.991 15.4054C166.218 16.3395 167.497 17.2026 168.822 17.9904C169.477 18.3934 170.159 18.75 170.838 19.1147C171.185 19.2819 171.53 19.4532 171.881 19.6103C172.231 19.7675 172.594 19.9085 172.951 20.0516C173.308 20.1946 173.683 20.3055 174.05 20.4203C174.417 20.5351 174.8 20.6218 175.183 20.7104C175.385 20.7507 175.57 20.789 175.764 20.8233L175.98 20.8555C178.73 20.3175 178.163 17.7305 178.163 17.7305V17.6902L178.117 17.6419C178.109 17.6322 178.1 17.6234 178.091 17.6157L178.04 17.5855L177.939 17.527C177.865 17.4847 177.792 17.4424 177.718 17.4041C177.57 17.3215 177.415 17.2409 177.262 17.1623C177.109 17.0838 176.953 17.0012 176.798 16.9266L176.326 16.6909C176.012 16.5398 175.693 16.3826 175.375 16.2396L174.893 16.0159C174.734 15.9434 174.572 15.8769 174.411 15.8003C173.119 15.2261 171.79 14.7002 170.467 14.1361L166.457 12.4376C165.779 12.1535 165.106 11.8634 164.414 11.5954C164.072 11.4544 163.729 11.3153 163.38 11.1924C163.031 11.0695 162.683 10.9285 162.326 10.8076H162.308C162.199 10.7755 162.086 10.7659 161.974 10.7793C161.862 10.7927 161.754 10.8288 161.657 10.8854C161.559 10.942 161.474 11.0179 161.407 11.1085C161.34 11.199 161.293 11.3024 161.267 11.4121C161.224 11.5711 161.223 11.7385 161.264 11.8981C161.305 12.0576 161.387 12.2039 161.501 12.3227Z" fill="#000F1F"/>
<path d="M162.202 11.8632C162.377 12.6975 162.626 13.5147 162.946 14.3051C163.252 15.0777 163.603 15.8318 163.996 16.5638C164.778 18.0151 165.716 19.3771 166.793 20.6256C167.328 21.2508 167.9 21.8429 168.507 22.3987C168.805 22.6828 169.126 22.9427 169.446 23.2046C169.773 23.4528 170.113 23.6835 170.464 23.8957C171.165 24.3281 171.92 24.6668 172.709 24.9031C172.91 24.9595 173.112 25.0038 173.313 25.0542C173.515 25.1046 173.717 25.1267 173.93 25.1509C174.138 25.18 174.348 25.1948 174.557 25.1952C174.772 25.1998 174.986 25.1904 175.199 25.167C175.508 25.1172 175.786 24.9493 175.974 24.6986C176.162 24.4479 176.246 24.134 176.207 23.8231C176.187 23.5976 176.108 23.3814 175.977 23.1965L175.935 23.1381C175.472 22.5254 174.966 21.947 174.42 21.4074C173.914 20.8896 173.4 20.4241 172.882 19.9628C171.84 19.0521 170.727 18.232 169.656 17.2931C168.585 16.3542 167.509 15.3952 166.43 14.3958C165.351 13.3965 164.244 12.3508 163.073 11.3353L163.051 11.3152C162.998 11.2693 162.936 11.2351 162.869 11.2148C162.802 11.1945 162.732 11.1885 162.662 11.1973C162.593 11.206 162.526 11.2293 162.466 11.2656C162.406 11.3018 162.355 11.3503 162.315 11.4078C162.219 11.5389 162.178 11.7025 162.202 11.8632Z" fill="#0C1E4F"/>
<path d="M160.738 11.8476C161.156 13.5838 161.73 15.279 162.451 16.9128C163.144 18.5246 163.939 20.0906 164.831 21.6013C165.268 22.3569 165.744 23.0883 166.224 23.8176C166.704 24.547 167.232 25.228 167.786 25.8989C168.063 26.2294 168.335 26.5658 168.627 26.8842C168.92 27.2025 169.22 27.5108 169.524 27.815C169.772 28.0749 170.037 28.3167 170.309 28.5524C172.527 29.717 173.938 27.6135 174.011 27.5168C173.974 27.3628 173.917 27.2144 173.841 27.0756L173.799 26.999C173.597 26.6263 173.38 26.2697 173.158 25.9231L172.478 24.8955C172.251 24.553 172.019 24.2172 171.781 23.8881C171.547 23.5537 171.317 23.2192 171.079 22.8807C170.125 21.5651 169.149 20.2615 168.168 18.9639L165.22 15.029C164.726 14.3661 164.228 13.7012 163.718 13.0384C163.47 12.7059 163.214 12.3755 162.958 12.043C162.702 11.7106 162.445 11.3741 162.189 11.0618L162.155 11.0215C162.087 10.9341 162.001 10.8622 161.903 10.8106C161.805 10.7589 161.697 10.7288 161.586 10.7221C161.476 10.7154 161.365 10.7324 161.261 10.7719C161.158 10.8113 161.064 10.8724 160.986 10.951C160.872 11.0671 160.789 11.2104 160.746 11.3672C160.702 11.5241 160.7 11.6894 160.738 11.8476Z" fill="#000F1F"/>
<path d="M159.751 11.6865C159.781 12.2043 159.821 12.7242 159.896 13.2319C160.027 14.2501 160.221 15.2593 160.475 16.2541C160.984 18.2139 161.669 20.1242 162.519 21.9621L163.17 23.3181C163.398 23.7654 163.644 24.1925 163.882 24.6337C164.35 25.5162 164.902 26.3342 165.449 27.1563C165.719 27.5713 166.025 27.9481 166.326 28.337C166.626 28.7258 166.931 29.1006 167.245 29.4753C167.344 29.5862 167.447 29.697 167.542 29.8038C169.1 30.7245 170.207 30.3175 170.798 29.9105C170.945 29.8025 171.048 29.6436 171.085 29.4647C171.122 29.2857 171.092 29.0993 170.999 28.9414C170.685 28.4115 170.193 27.5996 169.882 27.1281C169.64 26.7352 169.394 26.3483 169.14 25.9655C168.886 25.5827 168.618 25.214 168.386 24.8191C167.906 24.0414 167.378 23.2999 166.912 22.5141C166.673 22.1273 166.418 21.7465 166.189 21.3536L165.505 20.1669C164.605 18.5698 163.797 16.9223 163.086 15.2326C162.735 14.3823 162.402 13.522 162.114 12.6456C162.041 12.426 161.965 12.2063 161.912 11.9847C161.86 11.7631 161.771 11.5435 161.711 11.3218C161.65 11.1002 161.588 10.8766 161.537 10.6569L161.459 10.3285C161.436 10.2278 161.408 10.1009 161.39 10.0263L161.36 9.90139C161.336 9.79515 161.291 9.69476 161.228 9.60629C161.165 9.51782 161.084 9.44309 160.991 9.38661C160.898 9.33013 160.794 9.29306 160.686 9.27765C160.579 9.26224 160.469 9.26881 160.364 9.29695C160.198 9.35359 160.052 9.45877 159.947 9.59886C159.841 9.73895 159.78 9.90751 159.771 10.0827C159.749 10.3991 159.745 10.6428 159.743 10.9148C159.741 11.1868 159.745 11.4306 159.751 11.6865Z" fill="#0C1E4F"/>
<path d="M159.886 22.779C159.923 22.779 159.725 21.3989 159.761 21.3827C159.891 21.3301 160.003 21.2421 160.086 21.1289C160.168 21.0156 160.217 20.8816 160.227 20.742V20.6655C160.269 20.2162 160.253 19.783 160.271 19.3498C160.284 19.1342 160.294 18.9206 160.298 18.7071V18.3867C160.298 18.2799 160.316 18.1731 160.324 18.0684C160.338 17.8568 160.352 17.6453 160.362 17.4357L160.427 16.8091L160.453 16.4948C160.465 16.392 160.483 16.2933 160.497 16.1845L160.584 15.566C160.716 14.7453 160.897 13.9332 161.126 13.1341L161.211 12.8339C161.245 12.7372 161.278 12.6324 161.306 12.5377C161.364 12.3362 161.441 12.1448 161.507 11.9453C161.574 11.7459 161.653 11.5545 161.727 11.3631C161.765 11.2643 161.804 11.1616 161.844 11.0749L161.903 10.9359C161.921 10.8936 161.943 10.8392 161.951 10.811L162.003 10.6095C162.052 10.4476 162.036 10.2731 161.959 10.1228C161.881 9.97243 161.748 9.85801 161.588 9.80359C161.492 9.77668 161.391 9.77517 161.295 9.79919C161.198 9.82322 161.11 9.87195 161.038 9.94059C160.975 9.99701 160.937 10.0373 160.89 10.0836C160.844 10.13 160.802 10.1723 160.759 10.2186C160.675 10.3073 160.598 10.402 160.519 10.4947C160.441 10.5873 160.368 10.6861 160.296 10.7828C160.223 10.8795 160.15 10.9843 160.094 11.081C159.963 11.2825 159.832 11.4839 159.717 11.7036C159.677 11.7721 159.636 11.8426 159.6 11.905C159.599 11.9117 159.599 11.9185 159.6 11.9252C159.447 12.2617 157.929 17.8709 159.886 22.779Z" fill="#000F1F"/>
<path d="M159.643 21.2888L159.671 21.4903C159.733 21.9155 159.786 22.3446 159.873 22.7637L160.139 24.027C160.6 25.8726 162.478 28.921 164.171 29.9203C164.267 29.6547 164.267 29.3639 164.171 29.0983L164.139 29.0137C163.861 28.2722 163.534 27.5509 163.276 26.8094C163.018 26.068 162.744 25.3205 162.548 24.5529C162.443 24.1721 162.328 23.7912 162.23 23.4084L161.965 22.2479C161.871 21.8631 161.806 21.4702 161.738 21.0793L161.635 20.493L161.584 20.1988L161.548 19.9027L161.409 18.7159L161.338 17.5292L161.32 17.231V16.9308L161.296 16.3203C161.278 15.9173 161.296 15.5144 161.296 15.1114C161.306 14.3055 161.379 13.5157 161.453 12.7218C161.504 12.329 161.544 11.932 161.615 11.5452C161.647 11.3437 161.681 11.1563 161.717 10.9649C161.736 10.8702 161.754 10.7634 161.776 10.6808L161.834 10.4209V10.3665C161.891 10.1476 161.86 9.91548 161.75 9.7182C161.64 9.52092 161.458 9.37359 161.242 9.30672C161.104 9.27845 160.961 9.28848 160.828 9.33572C160.696 9.38297 160.578 9.46562 160.49 9.57469L161.621 9.81043C161.621 9.81043 159.135 12.5566 159.643 21.2888Z" fill="#0C1E4F"/>
<path d="M160.798 9.76752C160.768 10.0436 160.748 10.2732 160.73 10.519C160.711 10.7649 160.701 11.0026 160.689 11.2444C160.669 11.7239 160.661 12.2028 160.665 12.6809C160.665 13.638 160.711 14.587 160.768 15.538C160.899 17.4339 161.131 19.3137 161.431 21.1794L161.667 22.5737C161.756 23.0371 161.843 23.5005 161.937 23.9599C162.113 24.8867 162.341 25.7954 162.566 26.7081C162.671 27.1655 162.812 27.6107 162.935 28.0621C163.058 28.5134 163.195 28.9607 163.339 29.408C163.617 30.2763 163.911 31.1367 164.236 31.9849C164.577 32.8714 165.502 33.351 166.331 33.0084C166.714 32.8332 167.024 32.5303 167.208 32.1517C167.392 31.773 167.438 31.3422 167.339 30.9332L167.327 30.8868C167.125 29.9963 166.895 29.1219 166.653 28.2494C166.411 27.377 166.18 26.5046 165.946 25.6302C165.831 25.193 165.71 24.7578 165.589 24.3226C165.468 23.8874 165.349 23.4522 165.232 23.017C165.115 22.5818 164.992 22.1466 164.871 21.7114L164.524 20.3997C164.083 18.6509 163.659 16.8919 163.298 15.1209L163.036 13.7911C162.96 13.3458 162.869 12.9006 162.796 12.4573C162.724 12.014 162.653 11.5668 162.583 11.1215L162.49 10.4566C162.462 10.241 162.433 10.0053 162.413 9.81789V9.79774C162.417 9.584 162.336 9.37741 162.188 9.22344C162.039 9.06947 161.836 8.98071 161.622 8.9767C161.408 8.9727 161.201 9.05376 161.047 9.20207C160.893 9.35038 160.804 9.55377 160.8 9.76752H160.798Z" fill="#000F1F"/>
<path d="M160.569 8.76422C160.56 8.92729 160.56 9.09074 160.569 9.25382C160.569 9.33844 160.569 9.41903 160.589 9.50769C160.589 9.55403 160.602 9.59231 160.612 9.64268C160.622 9.69305 160.626 9.7273 160.644 9.80991C160.664 9.91734 160.706 10.0196 160.767 10.1103C160.828 10.2011 160.907 10.2785 160.999 10.3379C161.09 10.3972 161.193 10.4373 161.301 10.4557C161.409 10.474 161.519 10.4702 161.626 10.4446C161.842 10.3743 162.023 10.2248 162.132 10.0261C162.242 9.82751 162.272 9.59465 162.217 9.37471C162.217 9.36466 162.217 9.35454 162.217 9.34449C162.215 9.32435 162.215 9.30417 162.217 9.28404C162.217 9.24173 162.217 9.19337 162.217 9.14502C162.217 9.05234 162.217 8.94354 162.217 8.85086C162.219 8.74902 162.228 8.64743 162.243 8.54662C162.253 8.44237 162.269 8.33879 162.291 8.23634C162.375 7.8117 162.51 7.39893 162.694 7.0073L162.844 6.70507C162.898 6.60635 162.963 6.50359 163.019 6.41293C163.126 6.21144 163.277 6.03213 163.404 5.83266C163.531 5.63319 163.701 5.46395 163.846 5.27052C163.991 5.0771 164.17 4.9139 164.33 4.72249L164.354 4.69429C164.4 4.63787 164.602 4.54116 164.614 4.47266C164.614 4.47266 161.674 4.9139 160.714 7.85755C160.676 7.99803 160.647 8.14067 160.626 8.28469C160.596 8.44588 160.581 8.60303 160.569 8.76422Z" fill="#000F1F"/>
<path d="M176.821 20.5607C176.821 20.5607 173.502 17.7722 172.587 20.6373C171.627 23.6232 172.789 27.6488 176.107 28.2472L176.821 20.5607Z" fill="#FDB127"/>
<path d="M62.1471 65.5865V69.8176C62.1471 69.8176 44.0493 74.6532 30.0203 71.228C15.9913 67.8028 5.8254 28.3124 7.03515 26.2976C8.24489 24.2828 8.66225 21.0591 10.2873 21.865C11.9124 22.6709 62.1471 65.5865 62.1471 65.5865Z" fill="#0C1E4F"/>
<path d="M172.761 38.5878C172.761 38.5878 137.38 37.9834 124.774 53.296C112.169 68.6086 82.4798 69.8175 82.4798 69.8175C82.4798 69.8175 64.9929 55.5123 66.1099 41.1063C66.1099 41.1063 66.1845 34.393 67.8257 35.483C68.5959 35.9947 93.4602 44.0278 111.352 40.8041C135.086 36.5307 160.478 37.0928 172.761 38.5878Z" fill="#1941AA"/>
<path d="M67.457 35.3845C67.457 35.3845 71.0963 56.2499 82.5325 65.6068C100.757 62.5039 118.579 56.0908 125.825 49.7058C142.171 35.3059 175.55 38.8258 175.55 38.8258L160.378 33.6477C160.378 33.6477 141.495 27.3695 116.246 37.3126C102.929 42.5572 84.085 39.8815 67.457 35.3845Z" fill="#D5D9E3"/>
<path d="M179.369 33.0228C180.062 32.918 180.667 33.6272 180.633 34.5138C180.564 36.3271 179.808 38.9464 175.996 38.8315C170.181 38.6522 160.791 35.8093 160.36 33.6796C159.928 31.55 160.36 28.1631 162.015 28.6426C163.604 29.0939 170.247 34.4029 179.369 33.0228Z" fill="#1941AA"/>
<path d="M159.771 15.5244C159.771 15.5244 159.655 22.945 161.231 26.5253L159.771 15.5244Z" fill="#0C1E4F"/>
<path d="M119.227 3.04454C120.452 4.39246 121.805 5.56105 123.166 6.26825C123.794 6.61202 124.476 6.84705 125.183 6.96337C125.897 7.06681 126.626 7.02847 127.326 6.85054C128.163 6.63118 128.975 6.32177 129.745 5.92775C130.588 5.51471 131.459 5.02914 132.352 4.51738C133.246 4.00561 134.167 3.49989 135.139 3.01432C136.115 2.52376 137.117 2.0846 138.139 1.69865C139.183 1.31435 140.252 1.00067 141.339 0.759742C142.43 0.52267 143.54 0.375764 144.655 0.320511C145.21 0.290289 145.764 0.288274 146.317 0.302378C146.869 0.316482 147.42 0.344689 147.964 0.399089C149.05 0.503738 150.128 0.681445 151.19 0.931001C152.242 1.17301 153.279 1.47369 154.297 1.83162C155.309 2.19026 156.3 2.59323 157.269 3.04052C158.239 3.4878 159.182 3.97942 160.108 4.50529C160.572 4.76923 161.025 5.04929 161.479 5.33338C161.707 5.4771 161.933 5.62418 162.156 5.77462L162.495 6.00633C162.612 6.08893 162.713 6.15744 162.852 6.26221C163.012 6.38076 163.147 6.52985 163.248 6.70084C163.35 6.87182 163.417 7.0613 163.445 7.25828C163.473 7.45526 163.461 7.65582 163.411 7.84834C163.361 8.04085 163.273 8.22149 163.152 8.37978C162.908 8.70052 162.546 8.91175 162.146 8.96759C161.746 9.02342 161.341 8.91935 161.017 8.67798L160.961 8.63365C160.9 8.58328 160.795 8.5047 160.707 8.43217L160.422 8.23069C160.221 8.09368 160.031 7.95869 159.832 7.82772C159.428 7.55975 159.025 7.3079 158.6 7.06209C157.763 6.57005 156.9 6.12346 156.015 5.72425C155.135 5.32169 154.233 4.96986 153.313 4.6705C152.402 4.36981 151.472 4.12556 150.531 3.93912C149.599 3.75635 148.656 3.63787 147.708 3.58452C146.774 3.52725 145.836 3.54882 144.905 3.64899C143.986 3.74595 143.076 3.91846 142.186 4.16478C141.74 4.29373 141.296 4.43275 140.859 4.59193C140.421 4.7511 139.994 4.93243 139.568 5.12585C137.863 5.8935 136.262 6.92508 134.604 8.0695C133.77 8.63768 132.923 9.24212 131.983 9.82844C130.999 10.4693 129.955 11.0131 128.866 11.4524C127.636 11.94 126.33 12.2061 125.007 12.2382C123.674 12.2555 122.346 12.0617 121.073 11.6639C119.901 11.296 118.763 10.824 117.674 10.2536C116.624 9.70553 115.638 9.10915 114.68 8.49866L114.609 8.45433C114.21 8.20397 113.864 7.87662 113.592 7.49136C113.32 7.10609 113.127 6.67061 113.025 6.21027C112.923 5.74992 112.914 5.27392 112.998 4.80998C113.082 4.34605 113.258 3.90344 113.515 3.50795C114.037 2.71032 114.852 2.15024 115.785 1.94889C116.717 1.74754 117.691 1.92111 118.497 2.43204C118.765 2.60466 119.01 2.81046 119.227 3.04454Z" fill="#0C1E4F"/>
<path d="M160.811 9.84625L160.118 9.62865C159.878 9.55411 159.634 9.48359 159.39 9.41508C158.903 9.2727 158.414 9.13838 157.922 9.01212C156.938 8.75825 155.948 8.53259 154.956 8.34522C153.964 8.15784 152.972 7.98456 151.98 7.86367C150.988 7.74279 150 7.64205 149.016 7.59973C147.09 7.49572 145.158 7.59431 143.252 7.8939C142.79 7.97248 142.332 8.06314 141.883 8.16993C141.433 8.27671 140.99 8.40365 140.556 8.54065C140.123 8.67766 139.697 8.83482 139.282 9.00608L138.625 9.29017C138.385 9.39494 138.143 9.49165 137.899 9.59642C135.951 10.4023 133.846 11.0068 131.711 11.6112C130.64 11.9114 129.564 12.2338 128.453 12.534C127.314 12.8458 126.155 13.0728 124.983 13.213C123.742 13.3624 122.489 13.3746 121.247 13.2493C119.954 13.1144 118.684 12.8144 117.468 12.3567C116.258 11.8965 115.102 11.3054 114.02 10.5938C113.488 10.2432 112.974 9.87245 112.478 9.48963C111.982 9.10682 111.508 8.70385 111.04 8.29888L110.927 8.19813C110.58 7.89773 110.295 7.53134 110.091 7.12023C109.886 6.70912 109.765 6.26146 109.734 5.80321C109.704 5.34497 109.765 4.88525 109.914 4.45073C110.062 4.0162 110.296 3.61552 110.601 3.27191C111.22 2.57529 112.09 2.15079 113.021 2.09045C113.951 2.0301 114.868 2.33877 115.573 2.94953C115.842 3.18698 116.075 3.46258 116.264 3.76755C116.492 4.14269 116.74 4.5046 117.008 4.85152C117.266 5.19258 117.545 5.51632 117.845 5.82065C118.414 6.41761 119.063 6.93354 119.773 7.35393C121.166 8.18 122.815 8.56282 124.624 8.52252C125.558 8.49368 126.487 8.38311 127.402 8.19209C128.369 7.99514 129.314 7.70569 130.225 7.32773C132.082 6.5621 133.872 5.5144 135.814 4.70847C136.056 4.6037 136.302 4.50699 136.548 4.40625L136.731 4.3317L136.933 4.25514L137.36 4.09395C137.93 3.88844 138.506 3.70643 139.086 3.54794C140.234 3.24378 141.404 3.02823 142.584 2.90319C144.876 2.67376 147.186 2.72179 149.466 3.04625C150.584 3.19937 151.687 3.40085 152.775 3.65069C153.861 3.90657 154.93 4.20678 155.982 4.54124C157.035 4.8757 158.067 5.26255 159.083 5.68566C159.589 5.89788 160.092 6.12019 160.594 6.35256C160.844 6.46942 161.092 6.59031 161.34 6.71523L161.713 6.91671L162.102 7.11819C162.451 7.30871 162.711 7.62954 162.825 8.01073C162.938 8.39193 162.897 8.80258 162.709 9.15316C162.537 9.46516 162.262 9.70766 161.931 9.83893C161.6 9.97021 161.233 9.98206 160.894 9.87245L160.811 9.84625Z" fill="#000F1F"/>
<path d="M161.529 10.7009C161.291 10.6404 161.002 10.5739 160.734 10.5155L159.908 10.3422C159.353 10.2294 158.795 10.1408 158.234 10.042C157.115 9.86272 155.988 9.71362 154.861 9.59676C152.616 9.36159 150.358 9.28282 148.103 9.36103C145.892 9.42794 143.693 9.70795 141.536 10.1972C139.462 10.6555 137.471 11.4295 135.632 12.4921C135.408 12.619 135.199 12.762 134.983 12.895L134.295 13.3645C133.765 13.7312 133.207 14.0656 132.64 14.39C131.484 15.0367 130.269 15.5717 129.011 15.9878C126.419 16.8255 123.679 17.107 120.97 16.8138C118.299 16.511 115.697 15.7697 113.268 14.6197C112.07 14.0632 110.91 13.4299 109.794 12.7238C109.233 12.3732 108.685 12.0045 108.143 11.6116C107.873 11.4101 107.6 11.2086 107.336 11.0071C107.199 10.9003 107.064 10.7936 106.933 10.6787L106.731 10.5014L106.62 10.4047L106.56 10.3503L106.453 10.2758C106.108 9.9166 105.837 9.49244 105.657 9.02788C105.477 8.56332 105.391 8.06763 105.404 7.56958C105.417 7.07154 105.529 6.58106 105.733 6.12662C105.938 5.67219 106.23 5.26286 106.594 4.92238C107.332 4.23051 108.312 3.85708 109.324 3.88311C110.335 3.90914 111.295 4.33252 111.996 5.06141C111.996 5.06141 111.986 5.06141 111.996 5.06141L112.012 5.08357L112.056 5.13999L112.157 5.2649L112.385 5.52683C112.544 5.70413 112.711 5.88345 112.887 6.05874C113.234 6.40932 113.601 6.75385 113.982 7.08428C114.743 7.74618 115.552 8.3522 116.401 8.89762C118.065 9.98562 119.908 10.7714 121.845 11.2187C122.795 11.4276 123.764 11.535 124.736 11.539C125.224 11.5418 125.71 11.5142 126.194 11.4564C126.682 11.4023 127.167 11.3203 127.646 11.2106C128.626 10.9908 129.58 10.6694 130.493 10.2516C130.954 10.032 131.416 9.80832 131.866 9.54639L132.654 9.09104C132.942 8.93792 133.229 8.77673 133.521 8.63569C135.81 7.52516 138.251 6.7567 140.763 6.35492C143.177 5.96516 145.622 5.79387 148.066 5.84316C149.276 5.86532 150.486 5.91972 151.677 6.01845C152.869 6.11717 154.067 6.25015 155.252 6.42141C156.438 6.59267 157.617 6.77803 158.791 7.00772C159.377 7.12055 159.962 7.24748 160.547 7.37442L161.426 7.5759C161.724 7.64642 162.003 7.71492 162.327 7.80156C162.715 7.90416 163.046 8.15656 163.248 8.50324C163.45 8.84992 163.505 9.26247 163.403 9.65015C163.3 10.0378 163.048 10.3689 162.701 10.5705C162.354 10.772 161.941 10.8277 161.553 10.7251L161.529 10.7009Z" fill="#0C1E4F"/>
<path d="M162.073 11.3178C161.817 11.3017 161.508 11.2896 161.222 11.2816C160.936 11.2735 160.635 11.2655 160.343 11.2634C159.754 11.2634 159.164 11.2675 158.573 11.2755C157.391 11.3024 156.212 11.3662 155.036 11.4669C152.703 11.6658 150.386 12.026 148.102 12.5449C145.871 13.0455 143.692 13.7572 141.596 14.6705C140.583 15.1189 139.599 15.631 138.65 16.2038C138.414 16.3448 138.186 16.4919 137.959 16.639L137.225 17.1266C136.642 17.5114 136.053 17.8539 135.458 18.1783C133.111 19.428 130.628 20.4067 128.059 21.0957C125.482 21.8075 122.835 22.2385 120.165 22.3812C117.384 22.5378 114.594 22.2921 111.883 21.6518C110.467 21.3111 109.085 20.8389 107.757 20.2415C106.392 19.616 105.097 18.8474 103.894 17.9486L103.832 17.9023C103.403 17.5845 103.043 17.1851 102.77 16.727C102.497 16.2689 102.318 15.7613 102.243 15.2336C102.168 14.7059 102.199 14.1686 102.333 13.6528C102.467 13.137 102.702 12.6529 103.025 12.2285C103.681 11.3684 104.65 10.8014 105.722 10.6505C106.793 10.4996 107.881 10.777 108.749 11.4226C108.856 11.5032 108.951 11.5898 109.058 11.6765C109.743 12.3009 110.493 12.8513 111.294 13.3186C112.141 13.8036 113.031 14.2083 113.953 14.5274C115.937 15.1855 118.006 15.552 120.095 15.6154C122.292 15.6932 124.492 15.5331 126.656 15.1379C128.832 14.7594 130.959 14.1355 132.995 13.2783C133.489 13.0768 133.97 12.837 134.422 12.5912L135.245 12.1379C135.541 11.9807 135.838 11.8236 136.138 11.6765C137.324 11.0929 138.547 10.5848 139.797 10.1553C142.242 9.3275 144.761 8.73448 147.318 8.38427C149.822 8.03496 152.348 7.85925 154.877 7.8584C156.131 7.8584 157.384 7.89198 158.635 7.95914C159.26 7.99541 159.885 8.04175 160.51 8.09816C160.823 8.12637 161.135 8.15861 161.45 8.19286C161.764 8.22711 162.067 8.26539 162.418 8.31375C162.807 8.36475 163.161 8.56508 163.405 8.87234C163.649 9.17961 163.764 9.56974 163.726 9.9602C163.687 10.3507 163.498 10.7109 163.199 10.9646C162.9 11.2184 162.513 11.3457 162.121 11.3199L162.073 11.3178Z" fill="#000F1F"/>
<path d="M201.345 44.0132L205.95 44.7244C207.311 44.936 208.572 43.9044 208.773 42.4215C208.975 40.9386 208.035 39.5665 206.672 39.357L202.069 38.6437C200.706 38.4322 199.448 39.4637 199.246 40.9467C199.043 42.4296 199.984 43.8016 201.345 44.0132Z" fill="#F3D4CD"/>
<path d="M212.975 0C212.975 0 211.563 23.4686 208.43 33.5004L201.849 36.5528C201.849 36.5528 201.95 12.1393 194.25 3.21968L212.975 0Z" fill="#D5D9E3"/>
<path d="M211.403 31.4745C213.134 27.8366 213.237 24.2693 211.631 23.5067C210.026 22.7441 207.322 25.075 205.591 28.7128C203.86 32.3507 203.758 35.918 205.363 36.6806C206.968 37.4432 209.673 35.1124 211.403 31.4745Z" fill="#FDB127"/>
<path d="M186.022 61.5985C185.966 61.5983 185.911 61.5823 185.863 61.5524C185.815 61.5225 185.777 61.4798 185.752 61.4293C184.057 58.0041 182.968 57.5911 182.468 57.6495C181.619 57.7502 181.093 59.2613 180.962 59.8416C180.944 59.9199 180.895 59.9879 180.827 60.0306C180.759 60.0733 180.677 60.0872 180.599 60.0693C180.52 60.0514 180.452 60.0031 180.41 59.9351C180.367 59.8671 180.353 59.7849 180.371 59.7066C180.395 59.6059 180.952 57.2203 182.387 57.0491C183.571 56.908 184.845 58.258 186.285 61.1613C186.319 61.233 186.325 61.3155 186.299 61.391C186.273 61.4665 186.219 61.5288 186.147 61.5643C186.109 61.5848 186.066 61.5965 186.022 61.5985Z" fill="#EF6969"/>
<path d="M152.875 143.782C152.791 143.781 152.708 143.755 152.64 143.705C152.553 143.642 152.495 143.548 152.478 143.443C152.461 143.337 152.486 143.23 152.549 143.143C156.511 137.659 170.88 103.671 171.026 103.328C171.067 103.23 171.146 103.151 171.245 103.111C171.344 103.071 171.455 103.071 171.554 103.113C171.653 103.154 171.731 103.233 171.771 103.332C171.812 103.431 171.811 103.542 171.77 103.64C171.177 105.051 157.216 138.055 153.202 143.614C153.165 143.666 153.116 143.708 153.059 143.737C153.002 143.766 152.939 143.782 152.875 143.782Z" fill="#F3D4CD"/>
<path d="M132.796 115.755C132.738 115.755 132.681 115.743 132.628 115.719C132.58 115.697 132.536 115.666 132.5 115.628C132.464 115.589 132.435 115.544 132.417 115.494C132.398 115.444 132.389 115.392 132.391 115.339C132.393 115.286 132.405 115.233 132.427 115.185L138.475 102.02C138.497 101.972 138.529 101.929 138.568 101.893C138.607 101.857 138.652 101.829 138.702 101.81C138.752 101.792 138.804 101.783 138.857 101.785C138.91 101.787 138.962 101.8 139.011 101.822C139.059 101.844 139.102 101.875 139.138 101.914C139.174 101.953 139.202 101.999 139.221 102.048C139.239 102.098 139.248 102.151 139.246 102.204C139.244 102.257 139.231 102.309 139.209 102.357L133.161 115.522C133.128 115.591 133.077 115.65 133.012 115.692C132.948 115.733 132.872 115.755 132.796 115.755Z" fill="#F3D4CD"/>
<path d="M120.876 166.827H120.847C120.794 166.823 120.743 166.809 120.696 166.785C120.648 166.762 120.606 166.729 120.571 166.689C120.537 166.649 120.51 166.602 120.494 166.552C120.477 166.502 120.47 166.449 120.474 166.396C121.007 158.671 113.851 149.812 113.778 149.723C113.711 149.641 113.679 149.534 113.69 149.428C113.7 149.322 113.753 149.224 113.836 149.156C113.919 149.089 114.025 149.057 114.132 149.067C114.238 149.078 114.336 149.131 114.403 149.214C114.706 149.586 121.833 158.407 121.279 166.452C121.272 166.554 121.226 166.65 121.151 166.719C121.076 166.789 120.978 166.827 120.876 166.827Z" fill="#F3D4CD"/>
<path d="M174.869 174.921C170.054 174.921 167.409 173.444 167.253 173.349C167.166 173.293 167.103 173.206 167.078 173.105C167.053 173.004 167.068 172.897 167.121 172.807C167.173 172.717 167.257 172.651 167.357 172.622C167.457 172.593 167.564 172.604 167.657 172.652C167.713 172.684 173.518 175.906 183.651 172.618C183.702 172.599 183.756 172.591 183.811 172.593C183.865 172.596 183.918 172.609 183.967 172.633C184.015 172.657 184.059 172.69 184.095 172.731C184.13 172.772 184.157 172.819 184.174 172.871C184.191 172.922 184.197 172.977 184.193 173.031C184.188 173.085 184.172 173.137 184.147 173.185C184.121 173.233 184.087 173.275 184.044 173.309C184.002 173.343 183.954 173.368 183.901 173.383C180.351 174.536 177.326 174.921 174.869 174.921Z" fill="#F3D4CD"/>
<path d="M146.867 56.141C146.834 56.1405 146.801 56.1351 146.77 56.1248L143.808 55.1275C143.771 55.1143 143.736 55.0938 143.706 55.0672C143.677 55.0406 143.652 55.0084 143.635 54.9725C143.618 54.9366 143.608 54.8976 143.606 54.8578C143.604 54.8181 143.609 54.7782 143.623 54.7407C143.636 54.7031 143.656 54.6685 143.683 54.6389C143.71 54.6092 143.742 54.5851 143.778 54.5679C143.814 54.5507 143.853 54.5407 143.893 54.5385C143.932 54.5364 143.972 54.5421 144.01 54.5553L146.972 55.5506C147.041 55.5725 147.1 55.6184 147.138 55.6801C147.176 55.7418 147.191 55.8151 147.179 55.8866C147.168 55.9582 147.131 56.0232 147.075 56.0699C147.02 56.1166 146.949 56.1418 146.877 56.141H146.867Z" fill="#EF6969"/>
<path d="M30.409 66.7891C39.5688 68.1753 50.9606 67.5184 62.1991 65.6044C50.763 56.2516 47.1237 35.3821 47.1237 35.3821C27.056 29.9582 10.2264 21.8828 10.2264 21.8828C4.92172 27.8729 30.409 66.7891 30.409 66.7891Z" fill="#D5D9E3"/>
<path d="M40.7353 168.412C40.7353 168.412 24.8554 145.981 43.669 128.317C43.669 128.317 60.9764 144.853 40.7353 168.412Z" fill="#F3D4CD"/>
</g>
<defs>
<clipPath id="clip0">
<rect width="434" height="285" fill="white"/>
</clipPath>
</defs>
</svg>
