<svg width="338" height="325" viewBox="0 0 338 325" fill="none" xmlns="http://www.w3.org/2000/svg">
<path d="M315.649 147.081C315.649 147.081 316.829 142.423 312.008 141.805C312.008 141.805 309.217 140.1 309.767 135.429C310.317 130.758 321.968 130.153 325.102 131.746C328.235 133.339 325.102 140.545 325.102 142.353C325.129 143.554 325.352 144.742 325.762 145.871L321.64 148.949L315.649 147.081Z" fill="#EF6969"/>
<path d="M275.546 170.867L250.885 169.862C249.048 169.787 247.306 169.02 246.011 167.715C244.716 166.409 243.963 164.662 243.903 162.824C243.903 162.824 241.221 137.777 244.439 131.865C258.275 106.442 285.69 121.115 286.435 135.117C287.008 145.819 283.078 164.419 283.078 164.419C282.868 166.246 281.975 167.926 280.578 169.122C279.181 170.318 277.384 170.941 275.546 170.867Z" fill="#F3D4CD"/>
<path d="M208.907 60.0274C171.312 84.5923 178.733 101.078 178.733 101.078C178.733 101.078 176.588 117.405 176.421 118.004C176.254 118.604 164.847 119.522 164.847 119.522L157.125 109.267C154.818 102.944 151.19 102.565 151.19 102.565C151.19 102.565 134.048 70.5757 125.471 65.1347C116.895 59.6938 121.841 53.9247 121.841 53.9247L131.741 62.6617C142.953 67.2796 137.346 49.9668 137.346 49.9668C118.38 17.8143 132.891 17.323 132.891 17.323C132.891 17.323 134.706 29.3598 143.277 43.5378C151.848 57.7158 147.235 43.3765 147.235 43.3765C132.233 1.16519 148.224 1.98647 148.224 1.98647C148.114 5.65287 151.027 19.4404 152.807 27.5064C153.883 32.4217 155.617 37.1696 157.961 41.6221C163.509 52.0952 162.572 41.8861 162.572 41.8861C157.255 17.5338 159.479 7.31191 162.502 3.04239C164.842 -0.27387 167.67 -0.00255685 167.845 0.0102756C167.845 0.120268 167.845 0.23026 167.845 0.338418C167.878 1.65099 167.916 2.92873 167.962 4.18814C169.926 59.5508 183.016 63.4885 183.016 63.4885C195.049 54.4215 208.075 54.5847 208.902 55.0814C209.729 55.5782 208.907 60.0274 208.907 60.0274Z" fill="#EF6969"/>
<path d="M267.827 294.989C261.439 282.265 257.305 269.65 257.305 269.65C257.305 269.65 284.556 257.368 292.011 258.62C293.995 258.95 296.693 272.616 298.895 286.173C289.921 304.688 267.843 294.991 267.827 294.989Z" fill="#F3D4CD"/>
<path d="M294.9 241.806C289.838 227.256 286.184 208.524 286.184 208.524L300.255 198.742L301.641 200.392C301.641 200.392 309.847 217.34 320.254 230.724C320.186 230.853 320.116 230.977 320.043 231.091C316.618 236.957 310.623 234.711 310.623 234.711C305.825 245.388 294.9 241.806 294.9 241.806Z" fill="#D5D9E3"/>
<path d="M274.163 172.72C274.163 172.72 282.586 172.72 290.92 180.91C297.007 186.894 272.473 179.792 272.473 179.792L274.163 172.72Z" fill="#D5D9E3"/>
<path d="M290.959 180.468C290.959 180.468 312.787 172.908 315.646 176.042C315.646 176.042 313.886 168.955 315.646 157.413C315.646 157.413 315.866 149.39 315.646 147.082C315.646 147.082 321.472 147.85 325.759 145.872C325.759 145.872 328.947 159.721 328.947 161.919C328.947 164.117 332.904 178.407 328.177 184.453C323.451 190.499 315.893 194.057 302.564 202.149C289.536 210.065 293.764 258.758 293.764 258.758C293.764 258.758 288.708 272.058 276.835 275.904C276.835 275.904 269.91 278.322 255.288 268.32C255.288 268.32 250.012 250.074 248.582 246.886C247.152 243.699 240.447 226.991 239.899 220.397C239.351 213.803 233.632 211.214 232.749 210.556C231.865 209.898 222.038 202.697 220.529 201.412C214.171 195.995 212.523 199.425 192.515 179.793C192.515 179.793 185.365 173.131 181.302 169.723C177.239 166.315 160.421 162.634 157.121 109.27C157.121 109.27 174.929 117.239 178.722 101.081C178.722 101.081 182.35 113.18 191.418 123.86C200.486 134.541 208.733 159.569 208.733 159.569C208.733 159.569 216.483 172.358 229.181 176.042C229.181 176.042 241.877 174.451 246.329 178.902C250.78 183.353 290.959 180.468 290.959 180.468Z" fill="#1941AA"/>
<path d="M264.678 178.352C264.678 178.352 269.867 177.252 271.979 177.435C276.98 177.864 280.143 178.291 283.137 178.929C284.382 179.195 288.718 179.985 290.679 180.487C291.525 180.704 279.591 199.951 259.453 192.422C250.607 189.122 249.177 180.586 253.016 178.819C256.855 177.052 261.12 175.516 264.678 178.352Z" fill="#EF6969"/>
<path d="M275.671 165.576C274.316 170.159 274.73 175.338 274.767 175.565C275.467 179.965 275.706 179.536 278.177 184.364C278.177 184.364 268.434 198.113 257.139 185.587C257.539 181.411 257.185 177.196 256.094 173.145L273.463 168.027C273.463 168.027 277.029 160.989 275.671 165.576Z" fill="#EF6969"/>
<path d="M276.852 149.035L276.33 161.886C276.012 169.525 267.484 175.162 261.921 175.162C256.635 175.162 248.339 168.401 248.649 160.755L249.172 147.911C249.202 147.09 249.33 146.274 249.553 145.482C250.163 143.31 251.454 141.389 253.236 140.004C255.018 138.618 257.197 137.84 259.453 137.783C259.681 137.77 259.912 137.783 260.144 137.783L266.732 138.054C269.33 138.16 271.797 139.221 273.662 141.034C275.526 142.846 276.655 145.283 276.834 147.877C276.862 148.262 276.869 148.649 276.852 149.035Z" fill="#EF6969"/>
<path d="M259.455 137.785C250.64 144.231 251.615 149.061 251.615 149.061C250.699 148.317 249.555 145.475 249.555 145.475C250.167 143.304 251.458 141.386 253.24 140.002C255.021 138.618 257.2 137.841 259.455 137.785Z" fill="#0C1E4F"/>
<path d="M270.078 142.296C268.598 143.946 270.995 147.818 270.995 147.818C259.039 148.645 259.459 137.783 259.459 137.783C259.686 137.77 259.917 137.783 260.15 137.783L266.737 138.054C269.335 138.16 271.803 139.221 273.667 141.034C275.531 142.846 276.661 145.283 276.839 147.877C272.113 146.036 270.078 142.296 270.078 142.296Z" fill="#0C1E4F"/>
<path d="M276.178 117.559H256.555V122.294H276.178V117.559Z" fill="#EF6969"/>
<path d="M266.365 126.087C271.783 126.087 276.176 124.512 276.176 122.569C276.176 120.626 271.783 119.051 266.365 119.051C260.947 119.051 256.555 120.626 256.555 122.569C256.555 124.512 260.947 126.087 266.365 126.087Z" fill="#EF6969"/>
<path d="M266.365 120.715C271.783 120.715 276.176 119.25 276.176 117.444C276.176 115.638 271.783 114.174 266.365 114.174C260.947 114.174 256.555 115.638 256.555 117.444C256.555 119.25 260.947 120.715 266.365 120.715Z" fill="#0C1E4F"/>
<path d="M272.682 114.44C273.353 115.569 272.999 117.148 271.949 117.76C270.581 118.557 268.621 118.988 266.361 118.988C264.1 118.988 262.144 118.557 260.773 117.76C259.724 117.148 259.372 115.569 260.039 114.44C260.902 112.969 261.966 111.625 263.2 110.447C264.195 109.531 265.249 108.683 266.357 107.908C267.464 108.683 268.519 109.531 269.512 110.447C270.749 111.624 271.816 112.968 272.682 114.44Z" fill="#F3D4CD"/>
<path d="M262.663 117.944C262.572 117.944 262.484 117.91 262.416 117.849C262.348 117.788 262.306 117.704 262.297 117.614C261.818 112.97 265.928 108.739 266.104 108.561C266.174 108.497 266.265 108.462 266.359 108.464C266.453 108.465 266.543 108.503 266.61 108.569C266.677 108.635 266.717 108.724 266.72 108.818C266.723 108.913 266.69 109.004 266.627 109.074C266.587 109.117 262.583 113.243 263.026 117.538C263.031 117.586 263.027 117.635 263.013 117.681C263 117.727 262.977 117.77 262.947 117.808C262.916 117.845 262.879 117.876 262.837 117.899C262.794 117.922 262.748 117.937 262.7 117.942L262.663 117.944Z" fill="#EF6969"/>
<path d="M270.061 117.944H270.024C269.976 117.939 269.929 117.925 269.887 117.902C269.844 117.879 269.807 117.848 269.776 117.81C269.746 117.773 269.723 117.73 269.709 117.683C269.695 117.637 269.691 117.588 269.696 117.54C270.14 113.245 266.137 109.119 266.097 109.076C266.034 109.006 266.001 108.914 266.004 108.82C266.007 108.726 266.046 108.637 266.114 108.571C266.181 108.505 266.271 108.467 266.365 108.466C266.459 108.464 266.55 108.499 266.619 108.563C266.803 108.746 270.906 112.963 270.426 117.615C270.416 117.706 270.374 117.789 270.306 117.85C270.239 117.91 270.151 117.944 270.061 117.944Z" fill="#EF6969"/>
<path d="M266.097 118.848H266.086C266.038 118.846 265.991 118.835 265.947 118.816C265.903 118.796 265.863 118.768 265.83 118.733C265.797 118.698 265.771 118.656 265.754 118.611C265.737 118.566 265.729 118.518 265.731 118.47L265.998 109.066C266 109.018 266.011 108.97 266.03 108.926C266.05 108.882 266.078 108.843 266.113 108.81C266.149 108.777 266.19 108.751 266.235 108.734C266.28 108.717 266.328 108.709 266.376 108.71C266.424 108.712 266.472 108.722 266.516 108.742C266.559 108.762 266.599 108.79 266.632 108.825C266.665 108.86 266.691 108.902 266.708 108.947C266.725 108.992 266.733 109.04 266.732 109.088L266.462 118.492C266.459 118.587 266.42 118.677 266.352 118.744C266.284 118.81 266.192 118.847 266.097 118.848Z" fill="#EF6969"/>
<path d="M256.094 173.138C256.094 173.138 238.786 174.835 242.985 196.872C242.985 196.872 244.428 202.808 243.817 215.01C243.207 227.212 253.32 243.813 253.32 243.813C253.32 243.813 253.76 244.033 254.858 243.813C254.858 243.813 255.078 247.331 255.408 247.441C255.738 247.551 266.841 249.749 270.029 244.363C270.029 244.363 276.404 245.463 277.614 240.845C278.824 236.227 275.231 217.213 264.443 204.683C264.443 204.683 257.404 192.872 257.826 183.688C258.248 174.503 256.094 173.138 256.094 173.138Z" fill="#D5D9E3"/>
<path d="M278.301 185.547C278.24 185.547 278.181 185.532 278.127 185.504C278.074 185.475 278.028 185.434 277.995 185.384C276.464 183.013 275.38 180.382 274.799 177.62C274.788 177.572 274.786 177.521 274.794 177.472C274.803 177.423 274.821 177.376 274.849 177.334C274.876 177.292 274.912 177.257 274.953 177.229C274.995 177.201 275.041 177.183 275.091 177.174C275.14 177.165 275.19 177.166 275.239 177.177C275.287 177.189 275.333 177.21 275.373 177.239C275.413 177.269 275.447 177.306 275.472 177.35C275.497 177.393 275.514 177.44 275.52 177.49C275.52 177.528 276.253 181.433 278.605 184.978C278.659 185.059 278.678 185.158 278.659 185.254C278.64 185.349 278.584 185.433 278.503 185.486C278.443 185.526 278.373 185.547 278.301 185.547Z" fill="#F3D4CD"/>
<path d="M270.022 244.73C269.927 244.73 269.836 244.693 269.767 244.627C269.699 244.561 269.659 244.471 269.655 244.376C269.655 244.174 268.957 224.194 265.321 218.848C265.267 218.768 265.246 218.669 265.264 218.574C265.283 218.478 265.338 218.394 265.418 218.339C265.499 218.284 265.598 218.264 265.693 218.282C265.789 218.3 265.873 218.356 265.928 218.436C269.681 223.956 270.361 243.522 270.387 244.35C270.389 244.398 270.381 244.446 270.364 244.491C270.347 244.537 270.322 244.578 270.289 244.613C270.256 244.648 270.216 244.677 270.173 244.697C270.129 244.717 270.081 244.728 270.033 244.73H270.022Z" fill="#1941AA"/>
<path d="M255.404 247.802C255.317 247.803 255.233 247.774 255.166 247.719C255.099 247.664 255.053 247.587 255.037 247.501C254.997 247.276 250.98 224.77 256.27 212.229C256.307 212.139 256.379 212.068 256.469 212.031C256.559 211.994 256.66 211.995 256.75 212.033C256.84 212.07 256.911 212.142 256.947 212.232C256.984 212.322 256.984 212.423 256.946 212.513C251.741 224.856 255.718 247.146 255.76 247.369C255.769 247.417 255.768 247.465 255.758 247.513C255.748 247.56 255.728 247.604 255.701 247.644C255.673 247.684 255.638 247.718 255.598 247.744C255.557 247.77 255.512 247.788 255.465 247.796L255.404 247.802Z" fill="#1941AA"/>
<path d="M275.434 308.264L275.489 308.283C276.279 307.498 287.375 296.878 304.321 302.325L304.365 302.281L304.376 302.343L304.431 302.361L304.398 302.493L302.605 309.496L295.259 314.996L275.41 308.341" fill="#EF6969"/>
<path d="M306.793 319.736C298.986 325.89 288.323 324.572 288.323 324.572C283.655 321.089 279.253 315.013 275.41 308.335L275.396 308.309L275.355 308.24L275.412 308.258H275.434L275.489 308.276C292.435 313.723 303.54 303.103 304.321 302.318L304.365 302.274L304.376 302.337L304.398 302.487C305.823 312.071 306.793 319.736 306.793 319.736Z" fill="#F3D4CD"/>
<path d="M300.719 250.984C300.719 250.984 300.759 249.308 303.771 250.984C306.626 252.571 312.799 249.16 316.097 244.3C316.263 244.057 316.482 243.855 316.739 243.711C316.996 243.568 317.283 243.486 317.577 243.473C319.37 243.387 323.215 242.857 325.031 239.972C325.031 239.972 326.381 238.025 327.439 239.438L327.244 245.981L321.394 247.886L304.598 255.701L300.719 250.984Z" fill="#1941AA"/>
<path d="M324.344 255.333C324.28 255.332 324.218 255.315 324.163 255.282C324.108 255.25 324.062 255.204 324.03 255.149L319.647 247.871C319.596 247.788 319.581 247.688 319.604 247.594C319.628 247.499 319.688 247.418 319.771 247.367C319.855 247.317 319.955 247.302 320.049 247.325C320.144 247.349 320.225 247.409 320.275 247.492L324.657 254.77C324.682 254.811 324.699 254.857 324.706 254.905C324.713 254.952 324.711 255.001 324.7 255.048C324.688 255.095 324.667 255.139 324.639 255.177C324.61 255.216 324.574 255.249 324.533 255.274C324.476 255.31 324.411 255.331 324.344 255.333Z" fill="#0C1E4F"/>
<path d="M310.626 235.093C310.561 235.093 310.498 235.076 310.443 235.044C310.387 235.011 310.341 234.965 310.308 234.909C310.032 234.431 303.507 223.177 302.863 220.079C302.853 220.032 302.853 219.983 302.862 219.936C302.871 219.888 302.889 219.843 302.916 219.803C302.942 219.763 302.976 219.728 303.016 219.701C303.056 219.674 303.101 219.655 303.148 219.645C303.195 219.636 303.244 219.635 303.291 219.644C303.339 219.653 303.384 219.672 303.424 219.698C303.464 219.724 303.499 219.759 303.526 219.798C303.553 219.838 303.572 219.883 303.582 219.93C304.201 222.906 310.875 234.425 310.943 234.541C310.991 234.625 311.005 234.725 310.979 234.819C310.954 234.913 310.893 234.993 310.809 235.041C310.754 235.075 310.69 235.093 310.626 235.093Z" fill="#1941AA"/>
<path d="M169.309 115.602C167.789 115.592 166.272 115.444 164.778 115.162C164.683 115.145 164.598 115.09 164.542 115.01C164.487 114.93 164.465 114.832 164.482 114.736C164.5 114.64 164.554 114.555 164.634 114.499C164.714 114.444 164.813 114.422 164.909 114.44C170.154 115.397 174.319 114.742 176.956 112.552C178.916 110.922 179.35 109.017 179.354 108.999C179.364 108.952 179.384 108.907 179.411 108.868C179.439 108.828 179.474 108.794 179.514 108.768C179.555 108.742 179.6 108.724 179.647 108.716C179.695 108.707 179.743 108.708 179.79 108.718C179.837 108.729 179.882 108.748 179.922 108.775C179.961 108.803 179.995 108.838 180.021 108.878C180.047 108.919 180.065 108.964 180.073 109.012C180.082 109.059 180.081 109.108 180.071 109.155C180.053 109.243 179.576 111.325 177.423 113.116C175.946 114.344 173.427 115.602 169.309 115.602Z" fill="#D5D9E3"/>
<path d="M194.754 162.735C194.489 162.735 194.225 162.708 193.965 162.655C193.918 162.645 193.873 162.626 193.833 162.599C193.793 162.572 193.759 162.538 193.733 162.498C193.679 162.417 193.66 162.317 193.679 162.222C193.699 162.127 193.755 162.043 193.836 161.99C193.918 161.936 194.017 161.917 194.112 161.936C194.526 162.028 194.956 162.029 195.37 161.937C195.784 161.845 196.174 161.663 196.51 161.405C199.581 159.181 200.487 151.665 200.496 151.588C200.501 151.54 200.517 151.493 200.54 151.451C200.564 151.408 200.596 151.371 200.634 151.341C200.672 151.311 200.715 151.289 200.762 151.276C200.809 151.262 200.857 151.259 200.906 151.264C200.954 151.27 201 151.285 201.043 151.309C201.085 151.332 201.122 151.364 201.152 151.402C201.182 151.44 201.205 151.484 201.218 151.53C201.231 151.577 201.235 151.626 201.229 151.674C201.192 151.995 200.278 159.586 196.946 161.999C196.314 162.474 195.545 162.733 194.754 162.735Z" fill="#D5D9E3"/>
<path d="M324.34 254.965C332.248 255.843 337.198 248.62 337.198 248.62C333.914 246.378 330.623 243.157 327.473 239.473C327.447 239.442 327.415 239.417 327.377 239.401C327.34 239.385 327.3 239.378 327.259 239.38C327.219 239.383 327.18 239.394 327.145 239.414C327.11 239.435 327.08 239.463 327.057 239.496C326.337 240.574 323.535 244.244 318.503 244.648C318.195 244.67 317.897 244.763 317.631 244.92C317.366 245.077 317.141 245.294 316.974 245.553C315.171 248.398 308.843 256.903 300.719 250.983C303.447 257.962 306.492 263.271 309.55 263.795C319.111 265.431 324.34 254.965 324.34 254.965Z" fill="#D5D9E3"/>
<path d="M176.585 84.1851C176.59 85.4172 176.389 86.6414 175.991 87.8075C173.859 94.0404 166.324 97.7068 159.143 99.7508C156.556 100.489 154.076 101.558 151.765 102.933C150.795 103.508 149.858 104.136 148.958 104.814C148.958 104.814 148.958 104.814 148.949 104.814C146.472 106.679 144.284 108.899 142.455 111.403C142.319 111.586 142.182 111.769 142.044 111.953C130.767 126.928 110.646 136.901 87.6951 136.901C67.6817 136.901 49.8207 129.315 38.098 117.443C36.084 115.408 34.235 113.217 32.5685 110.889C28.7627 105.541 23.3555 101.541 17.1276 99.4667C9.32833 96.8855 0 92.132 0 84.1851C0 76.5663 9.50617 71.7194 17.3476 69.0337C23.4204 66.948 28.681 63.001 32.3815 57.754C43.4515 42.0362 64.0717 31.4678 87.6987 31.4678C110.965 31.4678 131.334 41.7172 142.517 57.0373C146.623 62.6768 152.46 66.8189 159.139 68.8321C167.618 71.3784 176.585 76.1154 176.585 84.1851Z" fill="#FDB127"/>
<path d="M63.6622 64.9234C71.4276 61.5263 76.3454 55.6248 74.6465 51.742C72.9476 47.8593 65.2752 47.4656 57.5098 50.8627C49.7443 54.2598 44.8265 60.1613 46.5254 64.044C48.2244 67.9268 55.8967 68.3205 63.6622 64.9234Z" fill="#F8F2E7"/>
<path d="M144.076 82.0142C145.066 82.0142 145.868 81.4413 145.868 80.7347C145.868 80.028 145.066 79.4551 144.076 79.4551C143.087 79.4551 142.285 80.028 142.285 80.7347C142.285 81.4413 143.087 82.0142 144.076 82.0142Z" fill="#EF6969"/>
<path d="M144.076 94.1314C145.066 94.1314 145.868 93.5585 145.868 92.8518C145.868 92.1452 145.066 91.5723 144.076 91.5723C143.087 91.5723 142.285 92.1452 142.285 92.8518C142.285 93.5585 143.087 94.1314 144.076 94.1314Z" fill="#EF6969"/>
<path d="M139.526 101.166C140.515 101.166 141.317 100.593 141.317 99.886C141.317 99.1793 140.515 98.6064 139.526 98.6064C138.536 98.6064 137.734 99.1793 137.734 99.886C137.734 100.593 138.536 101.166 139.526 101.166Z" fill="#EF6969"/>
<path d="M135.94 95.4088C136.929 95.4088 137.731 94.8359 137.731 94.1292C137.731 93.4225 136.929 92.8496 135.94 92.8496C134.95 92.8496 134.148 93.4225 134.148 94.1292C134.148 94.8359 134.95 95.4088 135.94 95.4088Z" fill="#EF6969"/>
<path d="M124.647 110.414C125.636 110.414 126.438 109.841 126.438 109.134C126.438 108.427 125.636 107.854 124.647 107.854C123.657 107.854 122.855 108.427 122.855 109.134C122.855 109.841 123.657 110.414 124.647 110.414Z" fill="#EF6969"/>
<path d="M131.467 109.135C132.456 109.135 133.258 108.562 133.258 107.856C133.258 107.149 132.456 106.576 131.467 106.576C130.478 106.576 129.676 107.149 129.676 107.856C129.676 108.562 130.478 109.135 131.467 109.135Z" fill="#EF6969"/>
<path d="M128.225 118.795C129.214 118.795 130.016 118.223 130.016 117.516C130.016 116.809 129.214 116.236 128.225 116.236C127.236 116.236 126.434 116.809 126.434 117.516C126.434 118.223 127.236 118.795 128.225 118.795Z" fill="#EF6969"/>
<path d="M113.858 121.967C114.847 121.967 115.649 121.394 115.649 120.688C115.649 119.981 114.847 119.408 113.858 119.408C112.868 119.408 112.066 119.981 112.066 120.688C112.066 121.394 112.868 121.967 113.858 121.967Z" fill="#EF6969"/>
<path d="M112.069 127.686C113.058 127.686 113.86 127.113 113.86 126.407C113.86 125.7 113.058 125.127 112.069 125.127C111.079 125.127 110.277 125.7 110.277 126.407C110.277 127.113 111.079 127.686 112.069 127.686Z" fill="#EF6969"/>
<path d="M110.283 117.517C111.273 117.517 112.075 116.944 112.075 116.238C112.075 115.531 111.273 114.958 110.283 114.958C109.294 114.958 108.492 115.531 108.492 116.238C108.492 116.944 109.294 117.517 110.283 117.517Z" fill="#EF6969"/>
<path d="M93.0334 126.408C94.0227 126.408 94.8247 125.835 94.8247 125.128C94.8247 124.422 94.0227 123.849 93.0334 123.849C92.0442 123.849 91.2422 124.422 91.2422 125.128C91.2422 125.835 92.0442 126.408 93.0334 126.408Z" fill="#EF6969"/>
<path d="M103.072 123.849C104.062 123.849 104.864 123.276 104.864 122.57C104.864 121.863 104.062 121.29 103.072 121.29C102.083 121.29 101.281 121.863 101.281 122.57C101.281 123.276 102.083 123.849 103.072 123.849Z" fill="#EF6969"/>
<path d="M128.608 102.443C129.597 102.443 130.399 101.87 130.399 101.163C130.399 100.457 129.597 99.8838 128.608 99.8838C127.618 99.8838 126.816 100.457 126.816 101.163C126.816 101.87 127.618 102.443 128.608 102.443Z" fill="#EF6969"/>
<path d="M119.612 114.977C120.601 114.977 121.403 114.404 121.403 113.698C121.403 112.991 120.601 112.418 119.612 112.418C118.622 112.418 117.82 112.991 117.82 113.698C117.82 114.404 118.622 114.977 119.612 114.977Z" fill="#EF6969"/>
<path d="M134.151 113.697C135.14 113.697 135.942 113.124 135.942 112.417C135.942 111.711 135.14 111.138 134.151 111.138C133.161 111.138 132.359 111.711 132.359 112.417C132.359 113.124 133.161 113.697 134.151 113.697Z" fill="#EF6969"/>
<path d="M133.471 241.336C134.059 241.336 134.061 240.419 133.471 240.419C132.88 240.419 132.879 241.336 133.471 241.336Z" fill="#EF6969"/>
</svg>
