<svg width="122" height="30" viewBox="0 0 122 30" fill="none" xmlns="http://www.w3.org/2000/svg">
<path d="M12.1293 2.55222C13.8621 2.54018 15.4575 2.93682 16.9157 3.74215C18.3993 4.54731 19.5665 5.64772 20.4171 7.0434C21.2933 8.4389 21.7372 9.97756 21.7489 11.6594C21.7607 13.3667 21.351 14.9113 20.5197 16.2932C19.7136 17.6494 18.6248 18.6508 17.2532 19.2974L23.9726 29.1128L15.6399 29.1707L10.1545 20.914L10.0781 20.9146L7.40247 20.9332L7.46013 29.2276L0.197705 29.2781L0.0124894 2.63646L12.1293 2.55222ZM11.4137 15.095C12.3821 15.0883 13.1447 14.8154 13.7016 14.2764C14.2583 13.7119 14.5332 12.9327 14.5263 11.9389C14.5204 11.098 14.2736 10.4244 13.7859 9.91816C13.2981 9.3864 12.6974 9.123 11.9839 9.12796L7.32062 9.16038L7.36208 15.1232L11.4137 15.095Z" fill="#0C1E4F"/>
<path d="M60.7315 28.8573L53.1632 28.9099L51.419 25.4435L40.4872 25.5195L38.7913 29.0098L31.2231 29.0624L45.7796 0.521701L60.7315 28.8573ZM45.8712 13.7087L42.8944 19.8837L48.9337 19.8417L45.8712 13.7087Z" fill="#0C1E4F"/>
<path d="M80.9013 2.07411C82.6341 2.06207 84.2296 2.45871 85.6878 3.26404C87.1714 4.0692 88.3385 5.16961 89.1892 6.56529C90.0653 7.96078 90.5093 9.49945 90.5209 11.1813C90.5328 12.8886 90.1231 14.4332 89.2917 15.8151C88.4857 17.1713 87.3969 18.1727 86.0253 18.8193L92.7447 28.6347L84.412 28.6926L78.9266 20.4359L78.8502 20.4364L76.1745 20.455L76.2322 28.7495L68.9698 28.8L68.7846 2.15835L80.9013 2.07411ZM80.1858 14.6169C81.1541 14.6102 81.9167 14.3373 82.4736 13.7983C83.0303 13.2338 83.3052 12.4546 83.2983 11.4608C83.2925 10.6199 83.0457 9.94633 82.558 9.44005C82.0701 8.90829 81.4694 8.64489 80.7559 8.64985L76.0927 8.68227L76.1341 14.6451L80.1858 14.6169Z" fill="#0C1E4F"/>
<path d="M120.527 1.79863L120.572 8.33481L108.188 8.42091L108.214 12.0903L119.757 12.0101L119.798 17.9729L108.255 18.0532L108.283 22.1049L120.973 22.0166L121.018 28.4381L101.065 28.5769L100.88 1.93522L120.527 1.79863Z" fill="#0C1E4F"/>
</svg>
