<svg width="122" height="30" viewBox="0 0 122 30" fill="none" xmlns="http://www.w3.org/2000/svg">
<path d="M12.1293 2.5521C13.8621 2.54005 15.4575 2.9367 16.9157 3.74203C18.3993 4.54719 19.5665 5.6476 20.4171 7.04328C21.2933 8.43877 21.7372 9.97743 21.7489 11.6593C21.7607 13.3666 21.351 14.9112 20.5197 16.293C19.7136 17.6493 18.6248 18.6507 17.2532 19.2973L23.9726 29.1127L15.6399 29.1706L10.1545 20.9139L10.0781 20.9144L7.40247 20.933L7.46013 29.2275L0.197705 29.278L0.0124894 2.63634L12.1293 2.5521ZM11.4137 15.0949C12.3821 15.0882 13.1447 14.8153 13.7016 14.2763C14.2583 13.7118 14.5332 12.9326 14.5263 11.9388C14.5204 11.0979 14.2736 10.4243 13.7859 9.91804C13.2981 9.38628 12.6974 9.12288 11.9839 9.12784L7.32062 9.16026L7.36208 15.1231L11.4137 15.0949Z" fill="#1941AA"/>
<path d="M60.7315 28.8571L53.1632 28.9098L51.419 25.4434L40.4872 25.5194L38.7913 29.0097L31.2231 29.0623L45.7796 0.521579L60.7315 28.8571ZM45.8712 13.7086L42.8944 19.8836L48.9337 19.8416L45.8712 13.7086Z" fill="#1941AA"/>
<path d="M80.9013 2.07399C82.6341 2.06194 84.2296 2.45859 85.6878 3.26392C87.1714 4.06907 88.3385 5.16949 89.1892 6.56516C90.0653 7.96066 90.5093 9.49932 90.5209 11.1811C90.5328 12.8885 90.1231 14.433 89.2917 15.8149C88.4857 17.1712 87.3969 18.1726 86.0253 18.8192L92.7447 28.6346L84.412 28.6925L78.9266 20.4358L78.8502 20.4363L76.1745 20.4549L76.2322 28.7494L68.9698 28.7999L68.7846 2.15823L80.9013 2.07399ZM80.1858 14.6168C81.1541 14.6101 81.9167 14.3372 82.4736 13.7982C83.0303 13.2337 83.3052 12.4545 83.2983 11.4607C83.2925 10.6198 83.0457 9.9462 82.558 9.43993C82.0701 8.90816 81.4694 8.64477 80.7559 8.64973L76.0927 8.68215L76.1341 14.645L80.1858 14.6168Z" fill="#1941AA"/>
<path d="M120.527 1.79851L120.572 8.33469L108.188 8.42079L108.214 12.0902L119.757 12.01L119.798 17.9728L108.255 18.0531L108.283 22.1047L120.973 22.0165L121.018 28.438L101.065 28.5767L100.88 1.93509L120.527 1.79851Z" fill="#1941AA"/>
</svg>
