<svg width="107" height="44" viewBox="0 0 107 44" fill="none" xmlns="http://www.w3.org/2000/svg">
<path d="M4.986 28.5649H0.846L3.654 16.3249H17.694L16.92 19.7449H7.02L6.552 21.7249H13.662L13.014 24.5149H5.904L4.986 28.5649ZM30.6807 16.3249C32.2167 16.3249 33.3747 16.6069 34.1547 17.1709C34.9467 17.7349 35.3427 18.5209 35.3427 19.5289C35.3427 19.8409 35.2947 20.2009 35.1987 20.6089C34.9347 21.7729 34.3767 22.6669 33.5247 23.2909C32.6847 23.9149 31.4847 24.2569 29.9247 24.3169L33.5607 28.4749L33.5427 28.5649H28.3407L24.7947 24.3349H23.1747L22.2027 28.5649H18.0627L20.8707 16.3249H30.6807ZM23.7687 21.7249H30.5727L31.0947 19.4749H24.2907L23.7687 21.7249ZM51.7721 28.5649H37.3361L40.1441 16.3249H54.2741L53.5361 19.5649H43.5461L43.1681 21.1849H50.3861L49.8101 23.7049H42.5921L42.2141 25.3249H52.5101L51.7721 28.5649ZM63.612 28.8709C60.12 28.8709 57.282 28.7209 55.098 28.4209L55.8 24.7849C57.84 25.1089 59.604 25.3249 61.092 25.4329C62.916 25.5649 64.536 25.6489 65.952 25.6849L66.348 23.9749L60.534 23.5069C57.978 23.2909 56.7 22.3189 56.7 20.5909C56.7 20.2429 56.742 19.9009 56.826 19.5649C57.114 18.3169 57.774 17.4169 58.806 16.8649C59.85 16.3009 61.392 16.0189 63.432 16.0189C64.56 16.0189 65.724 16.0489 66.924 16.1089C68.124 16.1689 69.678 16.2769 71.586 16.4329L70.866 20.0689C68.526 19.7209 66.468 19.4869 64.692 19.3669C63.672 19.2949 62.52 19.2409 61.236 19.2049L60.858 20.8609L66.294 21.2929C69.09 21.5209 70.488 22.5349 70.488 24.3349C70.488 24.6709 70.446 25.0069 70.362 25.3429C70.17 26.1469 69.834 26.8069 69.354 27.3229C68.874 27.8269 68.166 28.2109 67.23 28.4749C66.306 28.7389 65.1 28.8709 63.612 28.8709ZM86.2241 20.6269L87.2141 16.3249H91.3541L88.5461 28.5649H84.4061L85.4501 24.0469H78.4301L77.3861 28.5649H73.2461L76.0541 16.3249H80.1941L79.2041 20.6269H86.2241Z" fill="#34517E"/>
<path d="M70.0291 34.0135C71.5826 33.3925 70.6963 30.8783 70.2876 30.0605C75.4685 33.3828 73.2163 36.4905 72.0574 37.2229C70.8986 37.9553 69.2961 37.9856 68.5988 36.8824C68.1551 36.1803 68.4755 34.6345 70.0291 34.0135Z" fill="#34517E"/>
<path d="M78.2657 37.2649C79.9533 35.3975 77.0914 32.5879 75.998 31.7538C85.1961 32.8116 84.211 38.5009 83.1305 40.2574C82.05 42.014 79.9053 43.1159 78.233 42.0872C77.1688 41.4326 76.5782 39.1323 78.2657 37.2649Z" fill="#34517E"/>
<path d="M97.4874 13.6425C96.802 15.1687 94.327 14.178 93.5271 13.7354C96.6295 19.0508 99.8288 16.9306 100.609 15.8035C101.389 14.6763 101.487 13.0765 100.414 12.3336C99.7308 11.8609 98.1729 12.1163 97.4874 13.6425Z" fill="#34517E"/>
<path d="M90.66 9.72829C87.7598 7.88717 84.6376 12.3832 83.7669 14.0461C83.0757 1.42808 90.9562 1.4456 93.5678 2.49553C96.1793 3.54546 98.1548 6.17755 97.1553 8.66381C96.5192 10.246 93.5602 11.5694 90.66 9.72829Z" fill="#34517E"/>
</svg>
