<svg width="42" height="40" viewBox="0 0 42 40" fill="none" xmlns="http://www.w3.org/2000/svg">
<g clip-path="url(#clip0)">
<path d="M24.5523 20C24.5523 22.1143 22.7865 23.8281 20.6082 23.8281C18.4299 23.8281 16.6641 22.1143 16.6641 20C16.6641 17.8857 18.4299 16.1719 20.6082 16.1719C22.7865 16.1719 24.5523 17.8857 24.5523 20Z" fill="#1941AA"/>
<path d="M29.8308 13.2271C29.6412 12.7285 29.3387 12.2771 28.9457 11.9066C28.564 11.5251 28.0992 11.2316 27.5852 11.0475C27.1682 10.8904 26.5419 10.7033 25.3883 10.6523C24.1403 10.5971 23.7662 10.5852 20.6068 10.5852C17.4472 10.5852 17.073 10.5968 15.8254 10.652C14.6718 10.7033 14.0451 10.8904 13.6285 11.0475C13.1144 11.2316 12.6494 11.5251 12.268 11.9066C11.875 12.2771 11.5725 12.7281 11.3826 13.2271C11.2207 13.6318 11.0279 14.24 10.9754 15.3597C10.9185 16.5706 10.9062 16.9338 10.9062 20.0005C10.9062 23.0669 10.9185 23.4301 10.9754 24.6413C11.0279 25.761 11.2207 26.3689 11.3826 26.7736C11.5725 27.2725 11.8747 27.7236 12.2677 28.0941C12.6494 28.4755 13.1141 28.7691 13.6282 28.9531C14.0451 29.1106 14.6718 29.2977 15.8254 29.3486C17.073 29.4039 17.4469 29.4155 20.6065 29.4155C23.7665 29.4155 24.1407 29.4039 25.388 29.3486C26.5416 29.2977 27.1682 29.1106 27.5852 28.9531C28.6171 28.5668 29.4327 27.7751 29.8308 26.7736C29.9927 26.3689 30.1854 25.761 30.2383 24.6413C30.2952 23.4301 30.3071 23.0669 30.3071 20.0005C30.3071 16.9338 30.2952 16.5706 30.2383 15.3597C30.1858 14.24 29.993 13.6318 29.8308 13.2271ZM20.6068 25.8974C17.251 25.8974 14.5306 23.2573 14.5306 20.0002C14.5306 16.743 17.251 14.103 20.6068 14.103C23.9624 14.103 26.6828 16.743 26.6828 20.0002C26.6828 23.2573 23.9624 25.8974 20.6068 25.8974ZM26.923 15.248C26.1388 15.248 25.503 14.6309 25.503 13.8698C25.503 13.1087 26.1388 12.4916 26.923 12.4916C27.7072 12.4916 28.3429 13.1087 28.3429 13.8698C28.3426 14.6309 27.7072 15.248 26.923 15.248Z" fill="#1941AA"/>
<path d="M20.6061 0C9.22739 0 0 8.95599 0 20C0 31.044 9.22739 40 20.6061 40C31.9847 40 41.2121 31.044 41.2121 20C41.2121 8.95599 31.9847 0 20.6061 0ZM32.3671 24.7348C32.3098 25.9573 32.1096 26.792 31.8171 27.5226C31.2024 29.0652 29.946 30.2847 28.3566 30.8813C27.6042 31.1652 26.7439 31.3593 25.4847 31.4151C24.2229 31.4709 23.8198 31.4844 20.6064 31.4844C17.3927 31.4844 16.9899 31.4709 15.7278 31.4151C14.4685 31.3593 13.6082 31.1652 12.8558 30.8813C12.066 30.593 11.351 30.141 10.7599 29.5566C10.1581 28.9832 9.69242 28.2889 9.39529 27.5226C9.10288 26.7923 8.90259 25.9573 8.84536 24.7351C8.78719 23.5101 8.77367 23.1189 8.77367 20C8.77367 16.8811 8.78719 16.4899 8.84505 15.2652C8.90227 14.0427 9.10225 13.208 9.39466 12.4774C9.69179 11.7111 10.1578 11.0168 10.7599 10.4434C11.3507 9.85901 12.066 9.40704 12.8555 9.11865C13.6082 8.83484 14.4682 8.64075 15.7278 8.5849C16.9896 8.52905 17.3927 8.51562 20.6061 8.51562C23.8195 8.51562 24.2226 8.52905 25.4843 8.58521C26.7439 8.64075 27.6039 8.83484 28.3566 9.11835C29.1461 9.40674 29.8614 9.85901 30.4525 10.4434C31.0544 11.0172 31.5203 11.7111 31.8171 12.4774C32.1099 13.208 32.3098 14.0427 32.3674 15.2652C32.4249 16.4899 32.4384 16.8811 32.4384 20C32.4384 23.1189 32.4249 23.5101 32.3671 24.7348Z" fill="#1941AA"/>
</g>
<defs>
<clipPath id="clip0">
<rect width="41.2121" height="40" fill="white"/>
</clipPath>
</defs>
</svg>
