<svg width="90" height="90" fill="none" xmlns="http://www.w3.org/2000/svg"><path d="M14.273 68.459v.033H9.48a8.586 8.586 0 00-8.585 8.586v9.134a3.713 3.713 0 007.426 0v-9.134a1.133 1.133 0 011.153-1.153h4.8v.027a16.936 16.936 0 0012.116-5.099 36.82 36.82 0 01-7.809-3.41 9.456 9.456 0 01-4.308 1.016zM40.602 46.767a19.079 19.079 0 003.41 2.657c.615-.332.92-.521 1.532-.89a39.038 39.038 0 01-4.404-2.185l-.538.418zM51.079 21.525a3.69 3.69 0 10-5.64-4.759 3.69 3.69 0 005.64 4.759zM39.112 28.271a3.69 3.69 0 10-1.166 6.46 7.373 7.373 0 011.11-2.052 7.586 7.586 0 011.504-1.485 3.673 3.673 0 00-1.448-2.923z" fill="#091323"/><path d="M88.06 72.844a3.674 3.674 0 00-5.19 0l-6.388 6.387a1.12 1.12 0 01-.807.333 1.135 1.135 0 01-.81-.333l-14.8-14.8-.38-.379-.375-.375A35.696 35.696 0 104.015 48.981 35.712 35.712 0 0019.62 66.803a35.92 35.92 0 007.138 3.042l.415.12a35.443 35.443 0 0025.774-2.269l.396.395.395.392L69.68 84.426a8.486 8.486 0 0012 0l6.387-6.387a3.673 3.673 0 00-.006-5.195zM61.31 45.097l-.615-.245c-4.182-4.075-8.396-8.12-12.64-12.137-.154-.312-.23-.468-.386-.78.64-.665.96-.997 1.597-1.681l.804.332c4.212 3.986 8.327 8.041 12.17 12.379.106.269.156.402.262.664-.37.512-.767 1.002-1.192 1.468zm-1.103-26.455c.26.08.385.123.635.206a16.3 16.3 0 012.069 2.524c.066.286.1.429.166.721a69.5 69.5 0 01-2.03 2.574c.426.528.628.797.997 1.329.495-.877.734-1.329 1.209-2.192.182.106.272.16.445.269.482.825.895 1.688 1.235 2.58l.117.781c-.332.777-.532 1.166-.944 1.943.28.541.412.814.665 1.358.398-1.209.578-1.813.89-3.025.074.097.142.2.203.305.241 1.007.388 2.035.438 3.07 0 .331.016.477.026.793a16.516 16.516 0 01-.574 4.753 7.59 7.59 0 00-.282-.296c-2.362-4.832-5.335-8.715-9.144-12.518-.13-.286-.193-.428-.332-.707 1.697-1.78 2.537-2.68 4.211-4.468zm1.402 17.67c.531-1.053.78-1.587 1.249-2.657.192.116.285.176.468.296a30.207 30.207 0 011.873 3.301l.183.744a16.455 16.455 0 01-1.887 4.145l-.508-.265c-3.614-4.465-7.64-8.533-11.807-12.47l-.372-.77 1.594-1.684.784.303a96.233 96.233 0 018.423 9.057zm-17.381-20.24a5.068 5.068 0 118.057 6.15 5.068 5.068 0 01-8.057-6.15zm-11.386 12.06a5.062 5.062 0 019.031 2.281 7.509 7.509 0 012.152-.624.376.376 0 01.1.744c-.123.016-.243.043-.365.066a6.722 6.722 0 00-3.375 1.727c-.266.25-.513.52-.737.807a6.863 6.863 0 00-1.28 2.91 6.757 6.757 0 00-.039 2.149c0 .12.037.24.063.359a.378.378 0 01-.299.441h-.07a.372.372 0 01-.368-.302 7.563 7.563 0 01-.073-2.474 5.068 5.068 0 01-4.74-8.091v.006zM52.508 50.83l-.727-.093a44.347 44.347 0 01-2.03-.638c-.82.36-1.66.67-2.517.927.527.196 1.069.349 1.62.458.075.043.153.081.233.113-.664.09-.996.12-1.687.153h-.847c-4.73-.362-7.795-3.268-10.778-6.643-.057-.246-.083-.368-.143-.618l2.657-2.76.664.166a71.361 71.361 0 0014.8 7.905c.18.163.273.24.452.386a16.45 16.45 0 01-1.697.644zm5.796-3.73c-.638-.511-.967-.777-1.63-1.328l-.154.126c.605.82.904 1.209 1.485 1.933a1.073 1.073 0 01-.581.833c-2.833 1.555-7.453-1.398-9.815-2.989-2.58-1.747-7.081-6.54-4.072-9.828.694-.757 1.903-1.126 3.049-1.15l.86.529a338.602 338.602 0 003.577 3.381c.064.263.093.392.153.648-1.02-.093-2.238.186-2.886.807-1.09 1.043-.25 2.451 1.833 4.135 1.993 1.601 3.471 1.993 4.119 1.491a1.239 1.239 0 00.515-1.272 119.148 119.148 0 01-2.99-2.6 22.428 22.428 0 01-.332-.695c.625-.59.934-.896 1.541-1.514l.754.296c2.062 1.93 4.133 3.85 6.215 5.756l.279.59c-.39.383-.8.745-1.226 1.087l-.694-.236z" fill="#091323"/></svg>