<svg width="100" height="99" fill="none" xmlns="http://www.w3.org/2000/svg"><path d="M35.445 91.364c0 .293.078.58.224.834.148.254.36.466.614.614a1.706 1.706 0 001.686.014c3.116-1.749 8.093-5.478 8.843-11.738a90.132 90.132 0 01-10.3 4.052 43.444 43.444 0 01-1.067 6.224zM91.685 27.133a3.039 3.039 0 00-1.075-.875 3.07 3.07 0 00-1.355-.31h-.21C71.47 27.11 60.958 32.532 53.42 39.228l7.334 7.26a.186.186 0 00.143.056.187.187 0 00.14-.056l4.333-4.29a3.093 3.093 0 014.172.16c.547.541.868 1.268.898 2.033a3.024 3.024 0 01-.736 2.096l-4.334 4.29a6.34 6.34 0 01-2.057 1.366 6.39 6.39 0 01-4.858 0 6.339 6.339 0 01-2.058-1.365l-7.333-7.26c-2.667 2.937-5 5.982-7.234 8.933-.513.66-1.02 1.34-1.526 2-.507.66-1.067 1.34-1.63 1.98v4.025c0 .053.02.103.058.14a.201.201 0 00.142.058h6.133a3.101 3.101 0 012.238.855 3.041 3.041 0 01.936 2.186 3.016 3.016 0 01-.936 2.187 3.077 3.077 0 01-2.238.854h-6.133a6.4 6.4 0 01-3.745-1.222 6.295 6.295 0 01-2.295-3.173 236.934 236.934 0 01-4.414 3.874c-6.42 5.547-12.49 10.784-15.016 17.909a2.942 2.942 0 00.463 2.812c.302.388.699.695 1.153.892.454.196.95.277 1.444.233a89.365 89.365 0 0030.447-8.286 88.567 88.567 0 0024.3-17.032 86.677 86.677 0 0020.913-32.855 2.874 2.874 0 00-.44-2.755zM36.668 71.977c-6.2 3.923-10.48 6.316-10.523 6.339a.582.582 0 01-.28.073.58.58 0 01-.566-.427.566.566 0 01.282-.646c.044-.023 4.294-2.386 10.45-6.303a.585.585 0 01.77.19.57.57 0 01-.143.774h.01zm20.707-15.698a98.262 98.262 0 00-2 1.607c-1.05.854-2.137 1.732-3.504 2.755a.585.585 0 01-.81-.112.567.567 0 01.114-.799 125.08 125.08 0 003.466-2.729c.667-.528 1.307-1.059 2.024-1.62a.585.585 0 01.786.114.57.57 0 01-.066.784h-.01zM79.708 35.59a82.264 82.264 0 01-5.137 6.154.577.577 0 01-.623.155.578.578 0 01-.383-.511.567.567 0 01.15-.413 80.81 80.81 0 005.066-6.068.577.577 0 01.605-.213.582.582 0 01.355.261.569.569 0 01-.033.635z" fill="#091323"/><path d="M68.903 43.006a1.926 1.926 0 00-2.71 0l-4.334 4.29a1.364 1.364 0 01-1.916 0l-7.367-7.293-2.04-2.02c.333-.33.603-.607.82-.838a18.088 18.088 0 004.77-11.824 10.595 10.595 0 00-2.212-6.586 10.78 10.78 0 00-5.838-3.843 10.875 10.875 0 00-6.99.526 10.735 10.735 0 00-5.183 4.673 10.73 10.73 0 00-5.092-4.765 10.874 10.874 0 00-6.975-.656 10.786 10.786 0 00-5.908 3.728 10.6 10.6 0 00-2.342 6.537 18.085 18.085 0 004.537 11.913c2.12 2.373 9.94 9.6 13.576 12.936v10.672c.002.333.035.664.1.99a5.136 5.136 0 001.8 2.968 5.23 5.23 0 003.29 1.167h6.134a1.935 1.935 0 001.406-.526 1.896 1.896 0 00.59-1.37 1.881 1.881 0 00-.59-1.37 1.921 1.921 0 00-1.406-.526h-6.134c-.36 0-.705-.141-.959-.393a1.336 1.336 0 01-.397-.95V49.83c2.503-2.21 6.943-6.154 10.23-9.197l2.1 2.08 7.363 7.286a5.214 5.214 0 003.667 1.503c1.375 0 2.694-.541 3.666-1.503l4.334-4.29a1.901 1.901 0 00.574-1.35 1.884 1.884 0 00-.564-1.353zM35.826 38.28a16.387 16.387 0 01-7.8-2.084 16.189 16.189 0 01-5.823-5.542 16.218 16.218 0 015.972-5.387 16.41 16.41 0 017.852-1.88c2.736.036 5.418.755 7.8 2.089a16.205 16.205 0 015.822 5.544 16.208 16.208 0 01-5.972 5.384 16.4 16.4 0 01-7.851 1.876z" fill="#091323"/><path d="M39.364 36.544c3.185-1.88 4.228-5.96 2.33-9.112-1.9-3.153-6.02-4.185-9.205-2.306-3.185 1.88-4.227 5.96-2.329 9.112 1.899 3.153 6.02 4.185 9.204 2.306z" fill="#091323"/></svg>