<svg width="99" height="100" fill="none" xmlns="http://www.w3.org/2000/svg"><path d="M48.413 6.864c.119-.204.175-.307.29-.504.725.179 1.438.401 2.136.667.115.253.175.38.29.627.057 4.184.107 8.367.149 12.55l-.3.54c-.771.031-1.538.13-2.291.296l-.3-.506.026-13.67zM56.17 9.427c2.42 1.137 4.565 3.097 4.68 6.503.116 3.407-1.356 5.197-3.996 5.02-1.472-.1-2.208-.18-3.68-.223l-.3-.507c-.072-4-.178-8-.28-11.983l.24-.377c1.334.594 1.987.93 3.337 1.567zm.03 3.157l-.824-.284c.102 2 .138 3.03.257 5.127l.861.147c1.284.22 1.538-.5 1.485-2.154-.053-1.653-.54-2.42-1.778-2.836zM67.648 14.967c.201.483 0 .74.046 1.3-.105.14-.158.213-.26.36a25.46 25.46 0 01-2.532.413c.04.334.066.51.11.85a34.05 34.05 0 003.438-.953c.135.08.201.12.33.193.098.475.127.96.086 1.444a5.446 5.446 0 01-.33.353c-2.36 1-3.442 1.51-5.897 1.913l-.271-.306c0-3.404-.119-5.334-.825-8.667.096-.107.139-.16.224-.264 2.505.667 3.502.707 5.94.844.172.1.251.15.41.247.135.397.202.815.198 1.236a6.399 6.399 0 00-.278.25 26.55 26.55 0 01-3.445.06c.022.264.066.524.132.78.99-.066 1.508-.13 2.528-.266.152.09.231.133.396.213zM78.803 14.85a2.998 2.998 0 01-.33.1c-.738.179-1.465.401-2.178.667a1.78 1.78 0 01-.247.036 1.055 1.055 0 00-.198-.333c-1.264.367-1.901.594-3.175 1.05-.069.26-.18.507-.33.73-.145.113-.22.173-.373.287-.838.38-1.257.573-2.098.95l-.179-.154c1.195-2.533 1.772-3.913 1.878-5.443l.264-.12c1.554.067 2.336.104 3.87.287l.446.107c1.964.853 2.366 1.56 2.65 1.836zm-4.455-1.25l-.72.057c-.195.373-.363.76-.504 1.156.782-.18 1.172-.266 1.95-.416a3.735 3.735 0 00-.726-.797zM65.768 32.594a18.332 18.332 0 00-6.707-7.496 18.08 18.08 0 00-9.615-2.787v5.823a.446.446 0 01-.848.19.462.462 0 01-.05-.204v-5.786c-3.256.16-6.41 1.2-9.133 3.011a18.348 18.348 0 00-6.347 7.285c-.048.105-.098.216-.148.334-.102.223-.205.463-.33.727a18.345 18.345 0 006.568 7.872 18.08 18.08 0 009.728 3.073c3.466.068 6.88-.865 9.838-2.69a18.324 18.324 0 006.866-7.609c.155-.333.303-.667.462-1.047-.053-.243-.175-.47-.284-.696zm-28.149-1.29a.452.452 0 01-.627.097.452.452 0 01-.175-.45.494.494 0 01.076-.184 7.264 7.264 0 013.608-2.648 7.191 7.191 0 014.46-.018.45.45 0 01.307.503.45.45 0 01-.404.38.44.44 0 01-.173-.02 5.756 5.756 0 00-.66-.17 6.292 6.292 0 00-4.544.78 6.669 6.669 0 00-1.868 1.73zm8.794.263a6.42 6.42 0 00-2.733 2.82 6.508 6.508 0 00-.596 3.9.46.46 0 01-.373.52h-.073a.446.446 0 01-.442-.38 7.392 7.392 0 011.454-5.688 7.306 7.306 0 012.344-1.979.447.447 0 01.658.36.459.459 0 01-.239.444v.003zm9.099 6.797a.454.454 0 01-.443.383h-.072a.452.452 0 01-.292-.182.46.46 0 01-.081-.338 6.468 6.468 0 00-1.273-4.983 6.394 6.394 0 00-2.057-1.733.453.453 0 01-.188-.614.45.45 0 01.607-.19 7.278 7.278 0 012.346 1.977 7.363 7.363 0 011.334 2.777c.236.949.28 1.936.129 2.903h-.01zm5.207-7.03a.462.462 0 01-.264.087.438.438 0 01-.363-.187 6.379 6.379 0 00-1.871-1.717c-.063-.04-.125-.066-.188-.103a6.358 6.358 0 00-5.013-.507.443.443 0 01-.48-.14.455.455 0 01-.104-.326.46.46 0 01.31-.4 7.211 7.211 0 014.129-.094 7.27 7.27 0 013.966 2.754.46.46 0 01-.122.633zM67.98 59.737a4.49 4.49 0 00-.562-2.18 4.437 4.437 0 00-1.546-1.625 4.38 4.38 0 00-5.978 1.334 4.486 4.486 0 00-.325 4.348c.319.693.808 1.29 1.422 1.736a8.916 8.916 0 015.263-.083 4.428 4.428 0 001.272-1.561c.3-.612.455-1.286.454-1.969zM62.188 63.974a4.37 4.37 0 002.868-.047 7.805 7.805 0 00-2.868.047zM32.766 64.137a4.37 4.37 0 002.868-.047 8.154 8.154 0 00-1.32-.11 8.038 8.038 0 00-1.548.157zM38.55 59.9c.001-.764-.192-1.514-.561-2.18a4.438 4.438 0 00-1.547-1.625 4.38 4.38 0 00-5.978 1.334 4.486 4.486 0 00-.325 4.348c.319.693.809 1.29 1.422 1.736a8.917 8.917 0 015.28-.083 4.428 4.428 0 001.263-1.563c.297-.612.45-1.285.447-1.967z" fill="#091323"/><path d="M81.635 53.614h-.099c-2.038-8.411-7.248-15.685-14.52-20.27l-.036.09c-.198.493-.373.9-.558 1.28a19.23 19.23 0 01-7.246 8.02 18.96 18.96 0 01-10.387 2.8 18.975 18.975 0 01-10.24-3.308 19.256 19.256 0 01-6.85-8.369l-.049-.12c-7 4.64-11.983 11.805-13.932 20.03-.12 0-.235-.02-.354-.02a6.028 6.028 0 00-4.215 1.765 6.15 6.15 0 00-1.8 4.235 6.155 6.155 0 001.635 4.303 6.033 6.033 0 004.143 1.93c1.089 7.942 4.99 15.217 10.982 20.476a32.63 32.63 0 0021.604 8.129 32.633 32.633 0 0021.568-8.229c5.967-5.286 9.836-12.579 10.889-20.526 1.557-.137 3-.877 4.03-2.065a6.158 6.158 0 001.494-4.308 6.147 6.147 0 00-1.873-4.154 6.026 6.026 0 00-4.199-1.69h.013zM54.496 71.82l-.043.037a3.578 3.578 0 012.707-.935c.49.04.968.181 1.402.416.434.234.816.556 1.122.946a18.73 18.73 0 01-4.313 3.42l-1.799-3.144c.324-.225.633-.472.924-.74zm-6.237 2.24v3.524a11.445 11.445 0 01-5.138-1.48l1.706-3a8.407 8.407 0 003.432.956zm.947 0a8.36 8.36 0 003.558-1l1.768 3.09a13.293 13.293 0 01-5.326 1.437V74.06zm-3.577-9.24a.444.444 0 01.587.244c.206.492.547.916.982 1.22a2.776 2.776 0 004.067-1.007.45.45 0 01.444-.264.446.446 0 01.397.332.458.458 0 01-.049.355 3.714 3.714 0 01-1.426 1.497 3.663 3.663 0 01-3.946-.168 3.722 3.722 0 01-1.297-1.612.46.46 0 01.241-.597zm-2.73 6.94h.024c.338.32.703.61 1.089.867l-1.703 3a15.577 15.577 0 01-4.03-3.853 3.562 3.562 0 012.31-.853c.846 0 1.665.302 2.31.853v-.014zm-10.133-7.623a8.04 8.04 0 00-4.511 2.607.452.452 0 01-.318.192.445.445 0 01-.463-.27.457.457 0 01.12-.526 8.927 8.927 0 012.31-1.88 6.145 6.145 0 01-1.684-3.111 6.185 6.185 0 01.304-3.534 6.116 6.116 0 012.192-2.77 6.021 6.021 0 016.721-.106 6.11 6.11 0 012.277 2.7 6.183 6.183 0 01.414 3.521 6.15 6.15 0 01-1.587 3.164 8.976 8.976 0 012.151 1.61.448.448 0 010 .64.447.447 0 01-.633 0 8.178 8.178 0 00-2.241-1.604 7.997 7.997 0 00-2.165-.666l-2.887.033zm5.24 12.907a3.648 3.648 0 01-.386-4.543 16.234 16.234 0 004.204 3.96l-1.531 2.666a14.176 14.176 0 01-2.287-2.083zm4.62-.097c1.72.97 3.642 1.516 5.61 1.593v3.404a13.967 13.967 0 01-7.161-2.277l1.551-2.72zm6.57 5v-3.41A14.298 14.298 0 0055.018 77l1.491 2.61a14 14 0 01-7.303 2.334l-.01.003zM59.492 77a13.833 13.833 0 01-2.204 2.054l-1.436-2.51a19.345 19.345 0 004.337-3.404 3.648 3.648 0 01-.697 3.86zm10.603-10.793a.447.447 0 01-.633 0 7.969 7.969 0 00-4.406-2.283l-2.868.046a8.037 8.037 0 00-4.507 2.604.446.446 0 01-.33.153.451.451 0 01-.337-.753 8.966 8.966 0 012.31-1.88 6.145 6.145 0 01-1.685-3.112 6.185 6.185 0 01.305-3.533 6.116 6.116 0 012.192-2.771 6.021 6.021 0 016.721-.106 6.11 6.11 0 012.276 2.7 6.183 6.183 0 01.415 3.522 6.15 6.15 0 01-1.588 3.163c.794.424 1.52.967 2.152 1.61a.449.449 0 01-.017.643v-.003z" fill="#091323"/></svg>