<svg width="100" height="100" fill="none" xmlns="http://www.w3.org/2000/svg"><path d="M74.998 28.244a36.668 36.668 0 00-27.334-15.047.667.667 0 00-.547 1.103.67.67 0 00.087.07.737.737 0 00.173.1c.034.016.068.03.104.04h.096a35.333 35.333 0 0126.334 14.504.667.667 0 001.087-.77zM94.611 38.527a13.668 13.668 0 00-6.087-11.484 2.334 2.334 0 00-2.583 3.887 8.95 8.95 0 013.724 9.737 13.647 13.647 0 00-11.043-11.56 2.332 2.332 0 10-.844 4.59A8.963 8.963 0 0185.11 42.6a13.642 13.642 0 00-13.36-7.793 2.34 2.34 0 00.334 4.666 8.967 8.967 0 019.033 5.697 10.207 10.207 0 00-16.947 1.71 2.342 2.342 0 104.16 2.153 5.537 5.537 0 11.163 5.434 2.337 2.337 0 10-4 2.42 10.24 10.24 0 008.737 4.923h.277c1.844-.049 3.64-.6 5.193-1.593-6.813 22.36-27.086 22-27.086 22h-.037a11.583 11.583 0 01-7.07 4.666h.91c1.287 0 3.24-.03 5.96-.083 1.05-.02 1.956-.037 2.273-.037 11.93 0 22.083-4.303 29.357-12.443 7.593-8.503 11.61-20.883 11.61-35.8l-.007.007z" fill="#091323"/><path d="M53.564 41.73V29.2c0-4.926-1.573-9.2-4.436-12.03a11.332 11.332 0 00-8.087-3.373 36.373 36.373 0 00.033 72.41c.384 0 .79-.023 1.214-.06 2.546-.22 5.646-1.137 7.94-3.903 1.916-2.31 3.27-5.9 3.27-11.454V60.667c0-5.507 4.916-8.147 7.726-9.203-4.776-1.487-7.66-5.087-7.66-9.734zm-17.26-2.763A14.156 14.156 0 0145.858 45a14.162 14.162 0 01-9.59 6.034c.206-.634-.534-3.124-.157-3.4.377-.277 3.05 1.563 3.357 1.136.306-.426-2.28-2.333-2.114-2.84.167-.506 3.38-.513 3.38-1.056 0-.544-3.223-.567-3.38-1.054-.156-.486 2.42-2.42 2.114-2.84-.307-.42-2.93 1.444-3.357 1.134-.337-.247.22-2.27.193-3.147zm-2.193-.177c.55.002 1.098.035 1.643.097-.523.757-1.226 2.573-1.646 2.573-.42 0-1.12-1.816-1.644-2.57a14.25 14.25 0 011.647-.1zm-1.83 12.29c.53-.503 1.36-2.8 1.827-2.8.466 0 1.3 2.297 1.83 2.8H32.28zm-.367-12.113c-.026.877.53 2.9.19 3.143-.423.31-3.046-1.56-3.356-1.136-.31.423 2.28 2.333 2.116 2.843-.163.51-3.38.517-3.38 1.053 0 .537 3.224.567 3.38 1.057.157.49-2.423 2.42-2.116 2.84.306.42 2.933-1.447 3.356-1.137.424.31-.36 2.767-.153 3.4A14.169 14.169 0 0122.364 45a14.161 14.161 0 019.55-6.033zm14.15 23.7a14.19 14.19 0 01-23.926 0 .637.637 0 01.193-.877.636.636 0 01.877.194 12.92 12.92 0 0021.79 0 .632.632 0 011.157.453.631.631 0 01-.09.23z" fill="#091323"/></svg>