<svg width="100" height="100" fill="none" xmlns="http://www.w3.org/2000/svg"><path d="M90.164 78.917a4.86 4.86 0 00-6.55 1.416L79.791 78a10.163 10.163 0 00-5.41-10.457l-12.913-7.86-8.37-15.016-.844-1.06-15.826-15.334a4.143 4.143 0 00-5.624 6.06c-1.366 1.844-2.73 3.14-4.333 4a8.24 8.24 0 011.093-5.643 4.15 4.15 0 10-7.08-4.333 16.514 16.514 0 00-2.15 11.463 4.333 4.333 0 00-3.373 7l6.753 8.707 1.75 10.18c.21 1.59.607 3.297 1.587 4.333a4.16 4.16 0 002.167 1.35l24.473 6.02 12.123 7.514c.084.053.17.096.257.143a10.16 10.16 0 0011.44-.093l3.86 2.353a4.86 4.86 0 108.81.593 4.86 4.86 0 002-8.983l-.017-.02zm-58.207-46.51a4.524 4.524 0 017.267 4.45.373.373 0 01-.366.297h-.077a.38.38 0 01-.294-.447A3.77 3.77 0 0032.431 33a.378.378 0 01-.598-.187.375.375 0 01.125-.4v-.006zm8.204 11.027c-2.18 1.116-5.144 2.08-7.847 1.45a22.722 22.722 0 004.73-4.48l3.117 3.03zm-19.317-3.077a.376.376 0 11.053-.75 7.406 7.406 0 003.817-.79.377.377 0 01.45.584.373.373 0 01-.117.09 8.304 8.304 0 01-3.666.886c-.18 0-.36-.007-.537-.02zm1.49 12.71a.376.376 0 01-.373.333h-.034a.377.377 0 01-.333-.407 8.274 8.274 0 011.71-4.036c.331-.43.698-.832 1.097-1.2a8.139 8.139 0 01-1.357.117c-.375 0-.75-.028-1.12-.084a.377.377 0 01.11-.743 7.416 7.416 0 003.867-.493.288.288 0 01.093-.017 12.872 12.872 0 013.73-1.53.373.373 0 01.453.276.38.38 0 01-.273.457c-5.627 1.39-7.413 5.4-7.57 7.327zm11.43 11.103a6.11 6.11 0 01-4.97.58 6.302 6.302 0 01-.81-.333.376.376 0 01.333-.667c.23.112.467.206.71.284a5.357 5.357 0 004.357-.51.377.377 0 01.387.646h-.007zm2.88 5.497c-.08.246-.175.486-.286.72a.377.377 0 01-.334.216.351.351 0 01-.16-.036.373.373 0 01-.18-.5 5.334 5.334 0 00-.233-4.99.383.383 0 01.133-.517.377.377 0 01.517.133 6.095 6.095 0 01.543 4.974zm.437-8.28a.377.377 0 01-.194-.7c1.417-.834 3.117-1.283 5.2-1.38a3.77 3.77 0 00-.35-7.534c-5.736.267-10.146 2.444-13.483 6.667a.376.376 0 11-.59-.466c3.48-4.397 8.07-6.667 14.037-6.947.7-.032 1.4.1 2.04.386a.333.333 0 01.123-.066c1.387-.39 2.397-1.16 2.924-2.224a3.859 3.859 0 00.12-3.12 3.773 3.773 0 00-4.884-2.146.376.376 0 01-.407-.626.378.378 0 01.134-.074 4.527 4.527 0 015.857 2.573 4.635 4.635 0 01-.144 3.73 5 5 0 01-2.877 2.44 4.52 4.52 0 01-2.466 8.163c-2 .094-3.527.5-4.85 1.28a.393.393 0 01-.19.054v-.01zm20.753 1.503a12.803 12.803 0 01-16.03-.127.378.378 0 01.474-.586 12.05 12.05 0 0015.09.12.377.377 0 11.466.593zm19.04 20.747a6.722 6.722 0 01-.64.433.393.393 0 01-.19.05.372.372 0 01-.371-.469.384.384 0 01.171-.23 5.331 5.331 0 002.627-4.25.378.378 0 01.753.05 6.104 6.104 0 01-2.35 4.426v-.01zM28.844 21.547a.28.28 0 00.54 0 12.203 12.203 0 015.73-7.334.28.28 0 000-.486 12.203 12.203 0 01-5.73-7.334.28.28 0 00-.54 0 12.197 12.197 0 01-5.734 7.334.28.28 0 000 .486 12.197 12.197 0 015.734 7.334zM41.244 23.463a.147.147 0 00.284 0 6.376 6.376 0 013-3.84.15.15 0 00.053-.202.15.15 0 00-.053-.054 6.376 6.376 0 01-3-3.84.147.147 0 00-.284 0 6.377 6.377 0 01-3 3.84.15.15 0 000 .256 6.377 6.377 0 013 3.84z" fill="#091323"/></svg>