<svg width="100" height="99" fill="none" xmlns="http://www.w3.org/2000/svg"><path d="M66.499 26.515l4.02-7.286a8.016 8.016 0 00.757-6.199 8.044 8.044 0 00-1.472-2.831A8.133 8.133 0 0067.34 8.15a8.213 8.213 0 00-6.273-.64 8.18 8.18 0 00-2.834 1.508 8.088 8.088 0 00-2.024 2.474l-5.303 9.627c.89 2.82 1.073 5.812.533 8.718a17.616 17.616 0 01-5.244 9.65 17.92 17.92 0 01-9.983 4.732c.003.495.052.989.147 1.475l2.76 14.19-3.193-1.106a8.25 8.25 0 00-5.934.221 8.134 8.134 0 00-4.216 4.139l-6.647-5.248a7.705 7.705 0 00-10.724 1.226 7.52 7.52 0 001.19 10.622l22.92 18.08a7.692 7.692 0 004.727 1.653 7.694 7.694 0 004.745-1.603 7.56 7.56 0 002.721-4.168 7.498 7.498 0 00-.472-4.94l.606.21a8.208 8.208 0 009.295.595 8.089 8.089 0 003.227-3.626 7.988 7.988 0 00.552-4.802l-2.447-12.57a8.558 8.558 0 01-2.636-3.592 8.474 8.474 0 01-.462-4.416 8.513 8.513 0 011.835-4.05 8.637 8.637 0 013.64-2.594l13.703-5.161.54-3.234a8.028 8.028 0 00-1.105-5.531 8.164 8.164 0 00-4.485-3.475zM41.196 44.853a.507.507 0 01.666.215 7.568 7.568 0 003.443 3.34 7.672 7.672 0 004.78.62.514.514 0 01.521.218.502.502 0 01-.33.772 8.883 8.883 0 01-1.644.155 8.663 8.663 0 01-4.49-1.241 8.546 8.546 0 01-3.176-3.38.496.496 0 01.23-.699zm1.386 33.027a.495.495 0 01-.473.33.51.51 0 01-.17-.03l-10.903-3.93a8.658 8.658 0 01-4.24-3.2A8.52 8.52 0 0125.248 66a.5.5 0 01.152-.345.51.51 0 01.351-.144.51.51 0 01.354.15.499.499 0 01.143.355 7.537 7.537 0 001.373 4.457 7.658 7.658 0 003.744 2.823l10.913 3.924a.504.504 0 01.34.461.492.492 0 01-.037.199zM52.9 65.062c.283.116.572.215.867.297a.507.507 0 01.325.23.494.494 0 01-.2.7.508.508 0 01-.399.027c-.333-.09-.66-.2-.98-.33l-10.63-4.379a.5.5 0 01-.238-.637.5.5 0 01.625-.28l10.63 4.372zm10.18-37.51a7.704 7.704 0 00-4.538 1.986 7.569 7.569 0 00-2.359 4.323l-1.72 8.738a.5.5 0 01-.493.403.46.46 0 01-.097 0 .502.502 0 01-.397-.39.49.49 0 010-.194l1.717-8.722a8.555 8.555 0 012.67-4.89 8.708 8.708 0 015.137-2.245.509.509 0 01.523.254.492.492 0 01-.069.573.502.502 0 01-.367.163h-.007z" fill="#091323"/><path d="M30.482 42.96c1.91.385 3.873.443 5.803.17 3.48-.504 6.71-2.078 9.237-4.5a16.552 16.552 0 004.84-8.996c.441-2.374.37-4.813-.21-7.158a17.404 17.404 0 00-2.53-5.646 17.31 17.31 0 00-6.24-5.586 17.51 17.51 0 00-8.16-2.027 16.846 16.846 0 00-10.74 3.873 16.54 16.54 0 00-5.727 9.792 17.232 17.232 0 002.742 12.8 17.556 17.556 0 0010.985 7.274v.003zm10.516-17.098a.603.603 0 01.834.158 6.843 6.843 0 01.045 7.681 6.95 6.95 0 01-1.915 1.92 7.053 7.053 0 01-7.759.045 6.949 6.949 0 01-1.938-1.897.59.59 0 01.167-.825.606.606 0 01.833.165 5.788 5.788 0 003.696 2.413 5.832 5.832 0 004.337-.882 5.724 5.724 0 002.438-3.66 5.68 5.68 0 00-.89-4.293.586.586 0 01.152-.825zm-12.783-9.63a.59.59 0 01.253-.38.602.602 0 01.45-.091l5.26.99c.334.064.642.224.883.461a1.687 1.687 0 01.383 1.853 1.706 1.706 0 01-.629.768l-.817.558a.427.427 0 00-.178.437.425.425 0 00.338.332l5.58 1.062a.6.6 0 01.37.226.59.59 0 01-.075.797.603.603 0 01-.405.155.688.688 0 01-.116 0l-5.58-1.066a1.632 1.632 0 01-.844-.435 1.595 1.595 0 01-.362-1.766c.124-.296.335-.549.606-.726l.813-.544a.519.519 0 00.215-.53.516.516 0 00-.408-.404l-5.26-.99a.598.598 0 01-.48-.471.585.585 0 01.003-.235zm-7.08 4.746a.59.59 0 01.253-.38.602.602 0 01.45-.092l5.26.99c.335.063.643.223.885.459a1.684 1.684 0 01.385 1.853 1.704 1.704 0 01-.63.767l-.813.548a.407.407 0 00-.18.435.41.41 0 00.333.33l5.587 1.08a.6.6 0 01.359.23.59.59 0 01-.076.786.603.603 0 01-.396.158.671.671 0 01-.114 0l-5.58-1.082a1.636 1.636 0 01-.834-.437 1.6 1.6 0 01.228-2.48l.813-.545a.516.516 0 00.22-.531.513.513 0 00-.413-.403l-5.26-.99a.604.604 0 01-.383-.25.593.593 0 01-.094-.446zM95.467 38.92a7.623 7.623 0 00-4.02-4.21 7.739 7.739 0 00-5.85-.176L58.204 44.85a7.666 7.666 0 00-2.591 1.543 7.58 7.58 0 00-1.785 2.417 7.512 7.512 0 001.41 8.399 7.651 7.651 0 002.478 1.715 7.717 7.717 0 005.928.08L91.037 48.69a7.634 7.634 0 004.253-3.98 7.52 7.52 0 00.177-5.791z" fill="#091323"/></svg>