<?xml version="1.0" encoding="UTF-8" standalone="no"?>
<svg
   xmlns:dc="http://purl.org/dc/elements/1.1/"
   xmlns:cc="http://creativecommons.org/ns#"
   xmlns:rdf="http://www.w3.org/1999/02/22-rdf-syntax-ns#"
   xmlns:svg="http://www.w3.org/2000/svg"
   xmlns="http://www.w3.org/2000/svg"
   xmlns:sodipodi="http://sodipodi.sourceforge.net/DTD/sodipodi-0.dtd"
   xmlns:inkscape="http://www.inkscape.org/namespaces/inkscape"
   width="1215"
   height="285"
   viewBox="0 0 1215 285"
   version="1.1"
   id="svg72"
   sodipodi:docname="cult-logo-black-transparent.svg"
   inkscape:version="1.0.2 (e86c8708, 2021-01-15)">
  <metadata
     id="metadata78">
    <rdf:RDF>
      <cc:Work
         rdf:about="">
        <dc:format>image/svg+xml</dc:format>
        <dc:type
           rdf:resource="http://purl.org/dc/dcmitype/StillImage" />
        <dc:title>cult-logo-black-transparent</dc:title>
      </cc:Work>
    </rdf:RDF>
  </metadata>
  <defs
     id="defs76" />
  <sodipodi:namedview
     pagecolor="#ffffff"
     bordercolor="#666666"
     borderopacity="1"
     objecttolerance="10"
     gridtolerance="10"
     guidetolerance="10"
     inkscape:pageopacity="0"
     inkscape:pageshadow="2"
     inkscape:window-width="1680"
     inkscape:window-height="923"
     id="namedview74"
     showgrid="false"
     inkscape:zoom="0.77114501"
     inkscape:cx="359.12985"
     inkscape:cy="171.029"
     inkscape:window-x="0"
     inkscape:window-y="23"
     inkscape:window-maximized="0"
     inkscape:current-layer="svg72"
     inkscape:document-rotation="0">
    <inkscape:grid
       type="xygrid"
       id="grid870"
       originx="263.3212"
       originy="-44.863136" />
  </sodipodi:namedview>
  <!-- Generator: Sketch 59.1 (86144) - https://sketch.com -->
  <title
     id="title59">cult-logo-black-transparent</title>
  <desc
     id="desc61">Created with Sketch.</desc>
  <path
     d="M 117.48308,282.68632 C 57.09329,272.06895 12.32728,228.49348 1.91142,169.98732 -0.63714,155.83083 -0.63714,128.845 1.91142,114.6885 11.77324,59.721473 51.22052,18.247357 106.624,4.5332488 c 33.4637,-8.2948233 76.12439,-4.97689396 106.48549,8.0736282 14.2941,6.193468 31.91241,16.921439 37.45276,22.783114 L 253,37.933737 226.84956,69.454066 c -14.2941,17.253232 -27.0369,32.405104 -28.14497,33.511084 -2.10534,2.10136 -2.21614,2.10136 -8.31053,-3.649721 -22.16139,-20.902954 -62.38432,-18.248611 -79.6702,5.308691 -16.84266,22.78311 -16.73185,53.75045 0.33242,75.0958 19.50202,24.44208 56.62236,26.32224 79.78101,3.98151 4.7647,-4.7557 6.42681,-5.64048 7.42407,-4.6451 1.44049,1.54837 51.19282,61.1605 53.40896,64.14663 1.21887,1.54837 0.77564,2.43315 -3.76744,6.63586 -12.52119,11.61275 -34.68258,23.7785 -52.74412,28.97658 -22.383,6.41467 -54.1846,8.07363 -77.67568,3.87092 z"
     id="Path"
     style="fill:#000000;fill-rule:nonzero;stroke:none;stroke-width:1" />
  <path
     d="M 449.207,277.21389 C 436.6954,275.44612 420.08709,270.58475 409.45777,265.6129 381.99869,252.68609 363.28665,231.47287 355.09322,204.29342 350,186.94719 350,187.72059 350,126.40111 V 67.843761 L 385.43107,40.885285 C 404.91816,26.080221 425.40175,11.054186 430.82713,7.5186477 L 440.79212,1 l 0.55361,84.189993 0.55361,84.300477 3.87528,7.73399 c 6.5326,12.92681 17.82625,19.114 33.1059,18.00914 13.84027,-0.99437 24.13742,-8.3969 29.11992,-20.55031 l 2.54661,-6.29767 0.33216,-83.637569 L 511.10066,1 H 557.05033 603 v 83.969022 c 0,52.370148 -0.44289,88.056988 -1.21794,94.686118 -5.53611,49.49753 -38.19913,84.30048 -90.12779,95.57001 -11.40438,2.54117 -49.93567,3.64602 -62.44727,1.98874 z"
     id="path64"
     style="fill:#000000;fill-rule:nonzero;stroke:none;stroke-width:1" />
  <path
     id="polygon66"
     d="M 727,142.5 V 8 h 46.83633 46.8364 v 95.36271 95.3627 h 45.1636 45.1637 V 237.8627 277 h -92 H 727 Z"
     style="fill:#000000;fill-rule:nonzero;stroke:none;stroke-width:1" />
  <path
     d="m 1045.9277,176.63729 v -95.3627 h -44.4639 -44.46377 V 42.137295 3 h 90.57447 90.5744 l 0.2196,37.92459 0.3294,37.92459 37.5472,-34.065983 c 20.64,-18.741804 37.8766,-34.065984 38.206,-34.065984 0.3293,0 0.5489,16.867623 0.5489,37.483607 v 37.483606 h -38.4255 -38.4256 V 178.84221 272 h -46.1106 -46.1106 z"
     id="path68"
     style="fill:#000000;fill-rule:nonzero;stroke:none;stroke-width:1" />
</svg>
