<?xml version="1.0" encoding="utf-8"?>
<svg width="163px" height="52px" viewBox="0 0 163 52" version="1.1" xmlns:xlink="http://www.w3.org/1999/xlink" xmlns="http://www.w3.org/2000/svg">
  <desc>Created with Lunacy</desc>
  <g id="Logo">
    <path d="M15.4706 26.8882C15.4706 24.9399 14.9155 23.4253 13.8284 22.3875C12.8973 21.5102 11.6641 21.0053 9.83311 20.7504L7.43723 20.4045C6.71633 20.3051 6.07426 20.032 5.67358 19.6563C5.32366 19.3153 5.13131 18.8423 5.14317 18.3519C5.14317 17.2065 5.91005 15.9832 8.06288 15.9832C9.36017 15.9832 10.8381 16.1438 12.0812 17.3273L12.2339 17.4746L15.0518 14.6607L14.8876 14.5051C13.1502 12.8117 11.0811 12.0569 8.17619 12.0569C3.749 12.0569 0.888395 14.5796 0.888395 18.486C0.888395 20.2671 1.38432 21.6343 2.40901 22.6672C3.34503 23.5809 4.67188 24.1553 6.46509 24.4218L8.91515 24.7678C9.8873 24.9167 10.2666 25.1236 10.5951 25.4299C10.9596 25.7742 11.1534 26.3154 11.1534 26.9941C11.1534 28.9109 9.31748 29.3115 7.77715 29.3115C5.69 29.3115 4.13654 28.7735 3.0281 27.6562L2.87374 27.5006L0 30.394L0.156003 30.548C2.05267 32.4879 4.31553 33.3156 7.7246 33.3156C12.3505 33.3156 15.4706 30.7333 15.4706 26.8882ZM23.6812 17.5574C22.4503 17.5533 21.2602 18.0024 20.3346 18.8204L20.3346 12.239L16.1997 12.239L16.1997 33.1434L20.3411 33.1434L20.3411 23.7845C20.3411 21.5334 22.0079 21.3595 22.5186 21.3595C23.0293 21.3595 24.7256 21.5251 24.7256 23.7845L24.7256 33.1434L28.8671 33.1434L28.8671 23.2383C28.8671 19.7341 26.8834 17.5574 23.6878 17.5574M41.812 23.0645L41.812 33.1434L37.756 33.1434L37.756 32.1354C36.797 32.963 35.8183 33.294 34.3239 33.294C32.5931 33.294 31.3024 32.8405 30.3828 31.9069C29.5486 31.0379 29.0921 29.7898 29.0921 28.3895C29.0921 26.1847 30.483 23.8292 34.3847 23.8292L37.6689 23.8292L37.6689 23.3012C37.6689 21.7634 36.9546 21.1642 35.1203 21.1642C33.6884 21.1642 33.112 21.5383 32.4322 22.3229L32.2827 22.4984L29.5995 19.8599L29.7407 19.6943C31.1694 18.1136 32.6144 17.5541 35.2632 17.5541C39.5459 17.5541 41.8104 19.4593 41.8104 23.0612M37.1944 29.141C37.5228 28.8281 37.6689 28.3133 37.6689 27.4013L37.6689 26.817L34.9512 26.817C33.7492 26.817 33.0874 27.3417 33.0874 28.2935C33.0874 29.5366 34.1318 29.7981 35.0087 29.7981C36.0498 29.7981 36.6114 29.7038 37.196 29.136M65.6427 18.9644C67.2175 20.5518 67.2175 23.2482 67.2175 25.4199C67.2175 27.5916 67.2175 30.3113 65.6427 31.8987C64.7642 32.7859 63.3519 33.3139 61.8658 33.3139C60.4207 33.3139 59.3813 32.9564 58.4912 32.1354L58.4912 38.6323L54.3547 38.6323L54.3547 19.312L51.3808 22.3411L51.2264 22.1855C50.6829 21.6376 50.2526 21.3579 49.4119 21.3579C48.3642 21.3579 47.2344 22.1524 47.2344 23.8971L47.2344 33.1418L43.088 33.1418L43.088 17.7345L47.1441 17.7345L47.1441 18.8502C48.1276 18.0135 49.3745 17.557 50.6615 17.5624C52.2248 17.5624 53.2889 17.9878 54.3235 19.0356L54.3498 19.062L54.3498 17.7378L58.3779 17.7378L58.3779 18.8286C59.3189 17.948 60.3928 17.5657 61.8675 17.5657C63.3421 17.5657 64.7642 18.0937 65.6444 18.9809M60.7836 21.3596C58.8574 21.3596 58.4929 22.7864 58.4929 25.4216C58.4929 28.0568 58.8574 29.5151 60.7836 29.5151C62.7099 29.5151 63.0826 28.0766 63.0826 25.4216C63.0826 22.7665 62.7164 21.3596 60.7836 21.3596M81.2463 24.9333L81.2463 26.8203L71.9567 26.8203C72.0421 28.6129 73.1851 29.7154 74.9832 29.7154C76.5711 29.7154 77.3101 29.2635 78.1952 28.3713L78.3463 28.2173L80.9113 30.7383L80.7471 30.8956C79.2692 32.3853 77.7765 33.3156 74.9471 33.3156C71.7121 33.3156 67.858 31.9467 67.858 25.4216C67.858 20.57 70.4213 17.5574 74.548 17.5574C78.6123 17.5574 81.2381 20.4525 81.2381 24.9333M71.9551 23.8226L77.1409 23.8226C77.1168 23.3733 77.011 22.9323 76.8289 22.5215C76.4184 21.6045 75.6072 21.0997 74.548 21.0997C73.4888 21.0997 72.6776 21.6062 72.2654 22.5232C72.0856 22.9341 71.9805 23.3742 71.9551 23.8226M116.12 17.5574C114.889 17.5533 113.699 18.0024 112.774 18.8204L112.774 12.239L108.64 12.239L108.64 33.1434L112.782 33.1434L112.782 23.7845C112.782 21.5334 114.449 21.3595 114.959 21.3595C115.47 21.3595 117.166 21.5251 117.166 23.7845L117.166 33.1434L121.308 33.1434L121.308 23.2383C121.308 19.7341 119.324 17.5574 116.129 17.5574M134.819 23.0645L134.819 33.1434L130.763 33.1434L130.763 32.1354C129.804 32.963 128.826 33.294 127.331 33.294C125.602 33.294 124.311 32.8405 123.39 31.9069C122.557 31.0379 122.099 29.7898 122.099 28.3895C122.099 26.1847 123.49 23.8292 127.394 23.8292L130.678 23.8292L130.678 23.3012C130.678 21.7634 129.964 21.1642 128.129 21.1642C126.697 21.1642 126.121 21.5383 125.443 22.3229L125.29 22.4984L122.608 19.8599L122.75 19.6943C124.178 18.1136 125.623 17.5541 128.272 17.5541C132.556 17.5541 134.819 19.4593 134.819 23.0612M130.203 29.141C130.532 28.8281 130.678 28.3133 130.678 27.4013L130.678 26.817L127.962 26.817C126.76 26.817 126.098 27.3417 126.098 28.2935C126.098 29.5366 127.142 29.7981 128.019 29.7981C129.06 29.7981 129.624 29.7038 130.207 29.136M147.391 18.9644C148.966 20.5518 148.966 23.2482 148.966 25.4199C148.966 27.5916 148.966 30.3112 147.391 31.8987C146.513 32.7859 145.101 33.3139 143.615 33.3139C142.168 33.3139 141.128 32.9564 140.238 32.1354L140.238 38.6323L136.099 38.6323L136.099 17.7345L140.127 17.7345L140.127 18.8253C141.068 17.9447 142.14 17.5624 143.616 17.5624C145.093 17.5624 146.513 18.0904 147.393 18.9776M142.537 21.3596C140.611 21.3596 140.238 22.7864 140.238 25.4216C140.238 28.0568 140.605 29.5151 142.537 29.5151C144.47 29.5151 144.836 28.0766 144.836 25.4216C144.836 22.7665 144.47 21.3596 142.537 21.3596M163 26.8219L153.704 26.8219C153.789 28.6146 154.934 29.717 156.732 29.717C158.318 29.717 159.059 29.2651 159.942 28.3729L160.095 28.219L162.658 30.74L162.502 30.8972C161.025 32.387 159.533 33.3172 156.704 33.3172C153.469 33.3172 149.613 31.9483 149.613 25.4232C149.613 20.5716 152.177 17.559 156.303 17.559C160.369 17.559 162.995 20.4541 162.995 24.9349L163 26.8219ZM153.717 23.8242L158.903 23.8242C158.877 23.3747 158.772 22.9334 158.591 22.5215C158.179 21.6062 157.369 21.1013 156.308 21.1013C155.247 21.1013 154.438 21.6078 154.027 22.5249C153.846 22.9352 153.741 23.3756 153.717 23.8242M92.7478 30.3957C92.8036 30.452 92.8595 30.5033 92.912 30.5612C92.9416 30.4222 92.9678 30.2831 92.9958 30.1441L92.7478 30.3957ZM106.271 22.3891L106.271 22.3891C105.34 21.5118 104.106 21.007 102.275 20.7521L99.8796 20.4061C99.1587 20.3068 98.5166 20.0337 98.1159 19.6579C97.766 19.317 97.5737 18.844 97.5855 18.3536C97.5855 17.2081 98.3524 15.9849 100.505 15.9849C101.798 15.9849 103.285 16.1504 104.519 17.3323L104.671 17.4796L107.489 14.6656L107.325 14.51C105.589 12.8217 103.522 12.0669 100.617 12.0669C98.6283 12.0669 96.9008 12.5949 95.6199 13.5914L95.5132 13.6741L95.5394 13.8082C96.134 16.9826 96.3326 20.2195 96.1306 23.4435L96.1306 23.5875L96.2603 23.6521C97.0989 24.0506 97.9944 24.3137 98.914 24.4317L101.362 24.7777C102.336 24.925 102.716 25.1319 103.044 25.4398C103.409 25.7841 103.602 26.3254 103.602 27.004C103.602 28.9142 101.766 29.3214 100.226 29.3214C98.4197 29.3214 97.0321 28.9208 95.9664 28.0948L95.6774 27.8697L95.6035 28.3282C95.5591 28.608 95.5148 28.8894 95.4623 29.1708C95.298 30.1043 95.0878 31.0727 94.8497 32.0476L94.8087 32.2132L94.9729 32.291C96.3819 32.9911 98.0355 33.3172 100.178 33.3172C104.811 33.3172 107.923 30.735 107.923 26.8898C107.923 24.9416 107.373 23.427 106.281 22.3908M93.8218 12.4592L92.0056 11.9775L90.8725 13.0998C91.5983 15.1573 91.554 15.8177 91.7839 18.2559C91.0799 17.9174 90.3055 17.7545 89.5259 17.7809C87.9281 17.7809 86.5028 18.529 85.7901 19.3914L85.7901 17.9497L82.1774 17.9497L82.1774 32.9249L85.8837 32.9249L85.8837 23.8987C85.8837 22.0018 87.1399 21.1394 88.2796 21.1394C89.1926 21.1394 89.677 21.4556 90.2501 22.0299L91.9235 20.3267C91.9965 23.1236 91.7763 25.9205 91.2666 28.6709C88.9101 41.7326 81.0854 51.2355 73.7779 49.8964C70.8663 49.3618 68.4803 47.1851 66.8119 43.9374C68.592 48.2792 71.3935 51.2206 74.9208 51.8678C82.7521 53.303 91.6295 42.8863 94.2077 28.6014C95.5082 21.3927 95.0583 17.7974 93.8234 12.4608M69.9402 10.2361C73.4035 4.86147 78.0277 1.04773 82.3859 1.84391C84.7588 2.27759 86.5471 3.39159 87.7689 5.59806L89.1778 4.45758L91.1024 5.11969C89.3552 2.05744 87.1021 0.655428 84.2415 0.132362C79.1329 -0.804521 73.7664 3.30221 69.9369 10.2295M90.5079 11.0191C91.813 11.0191 92.871 9.95265 92.871 8.63714C92.871 7.32164 91.813 6.25521 90.5079 6.25521C89.2029 6.25521 88.1449 7.32164 88.1449 8.63714C88.1445 9.269 88.3933 9.87511 88.8365 10.3219C89.2798 10.7687 89.8811 11.0195 90.5079 11.0191" id="Shape" fill="#000000" fill-rule="evenodd" stroke="none" />
  </g>
</svg>
