<?xml version="1.0" standalone="no"?>
<!DOCTYPE svg PUBLIC "-//W3C//DTD SVG 20010904//EN"
 "http://www.w3.org/TR/2001/REC-SVG-20010904/DTD/svg10.dtd">
<svg version="1.0" xmlns="http://www.w3.org/2000/svg"
 width="894.000000pt" height="168.000000pt" viewBox="0 0 894.000000 168.000000"
 preserveAspectRatio="xMidYMid meet">
<g transform="translate(0.000000,168.000000) scale(0.100000,-0.100000)"
fill="#000000" stroke="none">
<path d="M100 1405 l0 -105 230 0 230 0 0 -545 0 -545 115 0 115 0 0 545 0
545 230 0 230 0 0 105 0 105 -575 0 -575 0 0 -105z"/>
<path d="M5723 1442 l-103 -57 0 -92 0 -93 -90 0 -90 0 0 -90 0 -90 90 0 90 0
0 -405 0 -405 105 0 105 0 0 405 0 405 120 0 120 0 0 90 0 90 -120 0 -119 0
-3 149 -3 149 -102 -56z"/>
<path d="M1478 1214 c-132 -31 -259 -125 -316 -232 l-32 -60 0 -217 0 -217 32
-60 c58 -108 178 -198 313 -233 69 -18 211 -20 287 -4 122 25 246 109 310 208
15 25 28 48 28 52 0 6 -171 79 -184 79 -2 0 -19 -21 -38 -47 -100 -140 -334
-158 -468 -37 -53 48 -70 82 -70 139 l0 45 380 0 380 0 0 143 c0 135 -1 146
-27 198 -56 113 -187 211 -325 244 -77 18 -194 18 -270 -1z m247 -191 c66 -22
151 -104 160 -155 13 -71 26 -68 -275 -68 l-270 0 0 38 c0 71 74 154 167 188
53 18 160 17 218 -3z"/>
<path d="M2586 1214 c-131 -32 -264 -130 -320 -238 -26 -48 -26 -52 -26 -271
0 -219 0 -222 27 -274 53 -107 176 -201 309 -235 78 -20 232 -21 307 -1 123
32 237 116 290 214 l27 48 -95 36 -96 36 -62 -63 c-68 -69 -127 -96 -212 -96
-102 0 -216 59 -260 134 -24 41 -25 50 -25 195 0 177 6 198 74 258 140 124
383 92 462 -59 l14 -27 100 41 100 40 -23 42 c-55 101 -179 190 -309 221 -78
18 -204 18 -282 -1z"/>
<path d="M3723 1220 c-53 -11 -117 -43 -170 -87 l-43 -34 0 50 0 51 -100 0
-100 0 0 -495 0 -495 105 0 105 0 0 340 c0 273 3 346 14 368 79 153 383 153
462 0 11 -22 14 -95 14 -368 l0 -340 105 0 105 0 0 378 0 378 -26 52 c-76 152
-280 239 -471 202z"/>
<path d="M4780 1224 c-159 -31 -309 -134 -374 -258 -26 -48 -26 -53 -26 -261
0 -209 0 -212 27 -265 55 -111 186 -209 328 -245 69 -18 211 -20 287 -4 139
29 284 135 341 249 27 53 27 56 27 263 0 205 0 209 -26 262 -31 63 -108 145
-171 182 -91 53 -170 75 -283 78 -58 2 -116 1 -130 -1z m185 -199 c76 -20 145
-64 181 -117 28 -40 29 -45 32 -186 4 -168 -7 -211 -66 -263 -51 -45 -133 -80
-201 -86 -113 -10 -236 47 -292 135 -29 45 -29 48 -29 189 0 163 7 187 66 246
46 46 76 63 146 81 69 19 92 19 163 1z"/>
<path d="M7145 1220 c-139 -28 -269 -119 -336 -235 l-29 -50 0 -230 0 -230 31
-54 c61 -107 177 -192 305 -225 78 -20 232 -21 307 -1 124 32 236 109 297 205
18 28 31 52 29 54 -2 2 -46 21 -98 42 -87 35 -94 36 -104 19 -60 -109 -200
-169 -334 -144 -126 23 -221 109 -231 208 l-5 51 382 0 381 0 0 153 c0 150 -1
153 -30 204 -64 111 -196 205 -328 232 -60 12 -177 13 -237 1z m261 -213 c60
-30 110 -86 126 -139 21 -70 30 -68 -272 -68 -302 0 -293 -2 -272 68 17 57 69
111 136 144 56 27 68 29 146 25 67 -3 96 -9 136 -30z"/>
<path d="M8218 1214 c-132 -31 -259 -125 -316 -232 l-32 -60 0 -217 0 -217 32
-60 c59 -111 194 -209 326 -237 68 -14 206 -14 274 0 120 25 248 112 310 208
15 25 28 48 28 52 0 7 -173 79 -188 79 -4 0 -18 -19 -32 -41 -87 -141 -337
-166 -467 -46 -56 52 -73 84 -73 142 l0 45 380 0 380 0 0 141 c0 133 -1 143
-27 197 -57 117 -185 214 -325 247 -77 18 -194 18 -270 -1z m248 -191 c65 -22
150 -106 159 -157 13 -69 25 -66 -275 -66 l-270 0 0 37 c0 73 73 155 167 189
53 18 160 17 219 -3z"/>
<path d="M6170 705 l0 -495 105 0 105 0 2 331 3 331 193 111 c105 61 192 114
192 117 0 3 -39 27 -86 53 l-85 48 -113 -66 c-62 -36 -116 -65 -119 -65 -4 0
-7 29 -7 65 l0 65 -95 0 -95 0 0 -495z"/>
</g>
</svg>
