<svg id="Layer_1" data-name="Layer 1" xmlns="http://www.w3.org/2000/svg" viewBox="0 0 175.64 37.84"><defs><style>.cls-1{fill:#000;}</style></defs><title>veracell-logo-white</title><g id="Layer_1-2" data-name="Layer 1-2"><path class="cls-1" d="M18.55,10.54l-.31.05L12.65,29,7.11,10.88,7,10.59l-.31-.05a24.19,24.19,0,0,0-6.13,0L0,10.63,8.71,37.18H9a29,29,0,0,0,3.61.19,29,29,0,0,0,3.61-.19h.31l8.66-26.55-.57-.09A23.87,23.87,0,0,0,18.55,10.54Z"/><path class="cls-1" d="M39.56,9.83c-7.7,0-11.44,2.87-11.44,8.78V29.15c0,5.85,3.82,8.69,11.69,8.69a51.23,51.23,0,0,0,9.33-.92l.35-.06V36.5a20.8,20.8,0,0,0,0-5.11l-.07-.52L49,31a36.59,36.59,0,0,1-7.88.8C37,31.8,35,31.19,35,27.73V26.27c4.75.23,12,.15,15.3-.08h.46v-6C50.7,13.21,47.06,9.83,39.56,9.83Zm-4.62,9.84c0-3.2,1.68-3.82,4.57-3.82S44,16.46,44,19.67v1.55H39.1L35,21.49Z"/><path class="cls-1" d="M71.92,9.83h-.43c-5.15,0-7.47,1.73-8.48,3.6l-.3-3.06h-.42a29.64,29.64,0,0,0-5.16,0h-.45V37.16l.41.07a23.78,23.78,0,0,0,6,0l.42-.07V20.31C64.74,17,66.1,16,71.49,16h.43l.06-.43a22,22,0,0,0,0-5.26Z"/><path class="cls-1" d="M86,9.83a51.44,51.44,0,0,0-9.27.81l-.36.06v.37a19.92,19.92,0,0,0,0,5l.07.52L77,16.5a44.31,44.31,0,0,1,7.45-.69c5.26,0,6.32,1.44,6.32,3.76v2a46.61,46.61,0,0,0-6.47-.48c-4.94,0-10,1.05-10,8.79,0,5.11,3.17,7.93,8.93,7.93,4,0,6.8-1.12,8-3.24l.3,2.81.37.07a17.77,17.77,0,0,0,5.25,0l.41-.08V18.16C97.54,12.48,93.88,9.83,86,9.83Zm4.67,16.78v2.48c-1,2.24-2.33,2.93-5.42,2.93C82.51,32,81,31.57,81,29.2c0-2.56,1.29-3,4.92-3a30.38,30.38,0,0,1,4.76.41Z"/><path class="cls-1" d="M115.26,15.85a35,35,0,0,1,6.69.59l.49.09.09-.49a16.71,16.71,0,0,0,0-5.09l-.06-.34-.34-.07a39.36,39.36,0,0,0-7.88-.71c-4.74,0-11,.89-11,8.63V29.25c0,5.78,3.61,8.59,11,8.59a33.4,33.4,0,0,0,7.9-1l.32-.08.06-.32a16.12,16.12,0,0,0,0-5l-.09-.51-.51.1a27.19,27.19,0,0,1-6.67.75c-3.23,0-5.23-.65-5.23-3.87V19.77C110,16.5,112,15.85,115.26,15.85Z"/><path class="cls-1" d="M138.55,9.83c-7.7,0-11.45,2.87-11.45,8.78V29.15c0,5.85,3.83,8.69,11.7,8.69a51.12,51.12,0,0,0,9.32-.92l.36-.06.05-.36a20.8,20.8,0,0,0,0-5.11l-.07-.52-.52.1a36.68,36.68,0,0,1-7.89.8c-4.15,0-6.12-.61-6.12-4.07V26.27c4.74.23,12,.15,15.29-.08h.47v-6C149.69,13.21,146.05,9.83,138.55,9.83Zm-4.62,9.84c0-3.2,1.67-3.82,4.57-3.82s4.47.61,4.47,3.82v1.55h-4.91l-4.13.27Z"/><path class="cls-1" d="M156.08.2l-.41.07V37.16l.41.07a23.78,23.78,0,0,0,6,0l.42-.07V.27L162.07.2A22.25,22.25,0,0,0,156.08.2Z"/><path class="cls-1" d="M175.22.2a22.32,22.32,0,0,0-6,0l-.41.07V37.16l.41.07a23.78,23.78,0,0,0,6,0l.42-.07V.27Z"/></g></svg>